<svg width="320" height="300" viewBox="0 0 320 300" fill="none" xmlns="http://www.w3.org/2000/svg">
<g filter="url(#filter0_d_26_15386)">
<rect x="20" y="24" width="280" height="266" rx="12" fill="#366CB3"/>
<g filter="url(#filter1_d_26_15386)">
<g clip-path="url(#clip0_26_15386)">
<path d="M10 22C10 15.3726 15.3726 10 22 10H298C304.627 10 310 15.3726 310 22V122C310 126.418 306.418 130 302 130H18C13.5817 130 10 126.418 10 122V22Z" fill="#1F4282"/>
<path fill-rule="evenodd" clip-rule="evenodd" d="M92.9816 55.3748C94.7639 54.3441 95.9631 52.4176 95.9631 50.2111C95.9631 46.9189 93.2933 44.25 90 44.25C86.7067 44.25 84.037 46.9189 84.037 50.2111C84.037 52.4176 85.2362 54.3441 87.0185 55.3748V63.3439L81.0734 57.9409C79.8549 56.8336 77.9693 56.9234 76.8616 58.1414C75.754 59.3595 75.8438 61.2445 77.0622 62.3518L87.0185 71.4002V76.309L80.0634 80.3233L75.8109 77.8689L72.9505 64.7249C72.6004 63.1164 71.0123 62.0961 69.4033 62.4461C67.7943 62.796 66.7737 64.3836 67.1237 65.9921L68.8317 73.8407L61.9281 69.8562C61.9264 67.7977 60.8571 65.7962 58.9456 64.6929C56.0935 63.0468 52.4466 64.0237 50.7999 66.8749C49.1533 69.726 50.1305 73.3718 52.9825 75.0179C54.894 76.1212 57.1624 76.0462 58.9464 75.0186L65.8501 79.0032L58.1971 81.4486C56.6286 81.9498 55.7635 83.6272 56.2649 85.1952C56.7662 86.7632 58.4441 87.628 60.0126 87.1268L72.8292 83.0313L77.0801 85.4847V93.5153L72.8294 95.9686L60.0126 91.8731C58.4442 91.3719 56.7662 92.2367 56.2649 93.8046C55.7635 95.3726 56.6286 97.05 58.1971 97.5512L65.8503 99.9967L58.9467 103.981C57.1626 102.953 54.894 102.879 52.9825 103.982C50.1305 105.628 49.1533 109.274 50.7999 112.125C52.4466 114.976 56.0935 115.953 58.9456 114.307C60.857 113.204 61.9263 111.202 61.9281 109.144L68.8317 105.159L67.1237 113.008C66.7737 114.616 67.7943 116.204 69.4033 116.554C71.0123 116.904 72.6004 115.883 72.9505 114.275L75.8108 101.131L80.0599 98.6788L87.0185 102.695V107.6L77.0622 116.648C75.8438 117.755 75.754 119.641 76.8616 120.859C77.9693 122.077 79.8549 122.166 81.0734 121.059L87.0185 115.656V123.625C85.2362 124.656 84.037 126.582 84.037 128.789C84.037 132.081 86.7067 134.75 90 134.75C93.2933 134.75 95.9631 132.081 95.9631 128.789C95.9631 126.582 94.7639 124.656 92.9816 123.625V115.656L98.9267 121.059C100.145 122.166 102.031 122.077 103.138 120.859C104.246 119.641 104.156 117.755 102.938 116.648L92.9816 107.6V102.695L99.9402 98.6788L104.189 101.131L107.05 114.275C107.4 115.883 108.988 116.904 110.597 116.554C112.206 116.204 113.226 114.616 112.876 113.008L111.168 105.159L118.072 109.144C118.074 111.202 119.143 113.204 121.054 114.307C123.907 115.953 127.553 114.976 129.2 112.125C130.847 109.274 129.87 105.628 127.018 103.982C125.106 102.879 122.837 102.953 121.053 103.981L114.15 99.9967L121.803 97.5512C123.371 97.05 124.237 95.3726 123.735 93.8046C123.234 92.2367 121.556 91.3719 119.987 91.8731L107.171 95.9686L102.92 93.5153V85.4847L107.171 83.0313L119.987 87.1268C121.556 87.628 123.234 86.7632 123.735 85.1952C124.237 83.6272 123.371 81.9498 121.803 81.4486L114.15 79.0031L121.054 75.0186C122.838 76.0462 125.106 76.1212 127.018 75.0179C129.87 73.3718 130.847 69.726 129.2 66.8749C127.553 64.0237 123.907 63.0468 121.054 64.6929C119.143 65.7962 118.074 67.7977 118.072 69.8561L111.168 73.8407L112.876 65.9921C113.226 64.3836 112.206 62.796 110.597 62.4461C108.988 62.0961 107.4 63.1164 107.05 64.7249L104.189 77.8688L99.9366 80.3232L92.9816 76.309V71.4002L102.938 62.3518C104.156 61.2445 104.246 59.3595 103.138 58.1414C102.031 56.9234 100.145 56.8336 98.9267 57.9409L92.9816 63.3439V55.3748ZM83.0431 85.4868V93.5173L90 97.5326L96.9569 93.5173V85.4868L90 81.4715L83.0431 85.4868Z" fill="#B8D6F2"/>
<path d="M15.963 130.461C15.963 127.169 13.2933 124.5 10 124.5V161.721L16.9569 165.737V170H22.9199V165.735L27.1708 163.281L39.9874 167.377C41.5559 167.878 43.2338 167.013 43.7352 165.445C44.2365 163.877 43.3714 162.2 41.803 161.699L34.1499 159.253L41.0536 155.269C42.8376 156.296 45.1061 156.371 47.0175 155.268C49.8696 153.622 50.8468 149.976 49.2001 147.125C47.5535 144.274 43.9065 143.297 41.0545 144.943C39.1429 146.046 38.0736 148.048 38.0719 150.106L31.1683 154.091L32.8763 146.242C33.2264 144.634 32.2058 143.046 30.5968 142.696C28.9878 142.346 27.3996 143.366 27.0496 144.975L24.1891 158.119L19.9366 160.573L12.9815 156.559V151.65L22.9378 142.602C24.1563 141.495 24.246 139.609 23.1384 138.391C22.0307 137.173 20.1451 137.084 18.9267 138.191L12.9815 143.594V135.625C14.7639 134.594 15.963 132.668 15.963 130.461Z" fill="#B8D6F2"/>
<path d="M164.037 130.461C164.037 127.169 166.707 124.5 170 124.5V161.721L163.043 165.737V170H157.08V165.735L152.829 163.281L140.013 167.377C138.444 167.878 136.766 167.013 136.265 165.445C135.764 163.877 136.629 162.2 138.197 161.699L145.85 159.253L138.946 155.269C137.162 156.296 134.894 156.371 132.983 155.268C130.13 153.622 129.153 149.976 130.8 147.125C132.447 144.274 136.093 143.297 138.946 144.943C140.857 146.046 141.926 148.048 141.928 150.106L148.832 154.091L147.124 146.242C146.774 144.634 147.794 143.046 149.403 142.696C151.012 142.346 152.6 143.366 152.95 144.975L155.811 158.119L160.063 160.573L167.018 156.559V151.65L157.062 142.602C155.844 141.495 155.754 139.609 156.862 138.391C157.969 137.173 159.855 137.084 161.073 138.191L167.018 143.594V135.625C165.236 134.594 164.037 132.668 164.037 130.461Z" fill="#B8D6F2"/>
<path d="M15.963 49.5389C15.963 52.8311 13.2933 55.5 10 55.5V18.2785L16.9569 14.2632V10H22.9199V14.2653L27.1708 16.7187L39.9874 12.6232C41.5559 12.122 43.2338 12.9868 43.7352 14.5548C44.2365 16.1228 43.3714 17.8002 41.803 18.3014L34.1499 20.7468L41.0536 24.7314C42.8376 23.7038 45.1061 23.6288 47.0175 24.7321C49.8696 26.3782 50.8468 30.024 49.2001 32.8751C47.5535 35.7263 43.9065 36.7032 41.0545 35.0571C39.1429 33.9538 38.0736 31.9523 38.0719 29.8938L31.1683 25.9093L32.8763 33.7579C33.2264 35.3664 32.2058 36.954 30.5968 37.3039C28.9878 37.6539 27.3996 36.6336 27.0496 35.0251L24.1891 21.8811L19.9366 19.4267L12.9815 23.441V28.3498L22.9378 37.3982C24.1563 38.5055 24.246 40.3905 23.1384 41.6086C22.0307 42.8266 20.1451 42.9164 18.9267 41.8091L12.9815 36.4061V44.3752C14.7639 45.4059 15.963 47.3324 15.963 49.5389Z" fill="#B8D6F2"/>
<path d="M164.037 49.5389C164.037 52.8311 166.707 55.5 170 55.5V18.2785L163.043 14.2632V10H157.08V14.2653L152.829 16.7187L140.013 12.6232C138.444 12.122 136.766 12.9868 136.265 14.5548C135.764 16.1228 136.629 17.8002 138.197 18.3014L145.85 20.7468L138.946 24.7314C137.162 23.7038 134.894 23.6288 132.983 24.7321C130.13 26.3782 129.153 30.024 130.8 32.8751C132.447 35.7263 136.093 36.7032 138.946 35.0571C140.857 33.9538 141.926 31.9523 141.928 29.8938L148.832 25.9093L147.124 33.7579C146.774 35.3664 147.794 36.954 149.403 37.3039C151.012 37.6539 152.6 36.6336 152.95 35.0251L155.811 21.8811L160.063 19.4267L167.018 23.441V28.3498L157.062 37.3982C155.844 38.5055 155.754 40.3905 156.862 41.6086C157.969 42.8266 159.855 42.9164 161.073 41.8091L167.018 36.4061V44.3752C165.236 45.4059 164.037 47.3324 164.037 49.5389Z" fill="#B8D6F2"/>
<path d="M10 102C16.6274 102 22 96.6274 22 90C22 83.3726 16.6274 78 10 78V102Z" fill="#366CB3"/>
<path d="M170 78C163.373 78 158 83.3726 158 90C158 96.6274 163.373 102 170 102V78Z" fill="#366CB3"/>
<path d="M90 22C83.3726 22 78 16.6274 78 10H102C102 16.6274 96.6274 22 90 22Z" fill="#366CB3"/>
<path d="M90 158C96.6274 158 102 163.373 102 170H78C78 163.373 83.3726 158 90 158Z" fill="#366CB3"/>
<path fill-rule="evenodd" clip-rule="evenodd" d="M252.982 55.3748C254.764 54.3441 255.963 52.4176 255.963 50.2111C255.963 46.9189 253.293 44.25 250 44.25C246.707 44.25 244.037 46.9189 244.037 50.2111C244.037 52.4176 245.236 54.3441 247.019 55.3748V63.3439L241.073 57.9409C239.855 56.8336 237.969 56.9234 236.862 58.1414C235.754 59.3595 235.844 61.2445 237.062 62.3518L247.019 71.4002V76.309L240.063 80.3233L235.811 77.8689L232.95 64.7249C232.6 63.1164 231.012 62.0961 229.403 62.4461C227.794 62.796 226.774 64.3836 227.124 65.9921L228.832 73.8407L221.928 69.8562C221.926 67.7977 220.857 65.7962 218.946 64.6929C216.093 63.0468 212.447 64.0237 210.8 66.8749C209.153 69.726 210.13 73.3718 212.983 75.0179C214.894 76.1212 217.162 76.0462 218.946 75.0186L225.85 79.0032L218.197 81.4486C216.629 81.9498 215.764 83.6272 216.265 85.1952C216.766 86.7632 218.444 87.628 220.013 87.1268L232.829 83.0313L237.08 85.4847V93.5153L232.829 95.9686L220.013 91.8731C218.444 91.3719 216.766 92.2367 216.265 93.8046C215.764 95.3726 216.629 97.05 218.197 97.5512L225.85 99.9967L218.947 103.981C217.163 102.953 214.894 102.879 212.983 103.982C210.13 105.628 209.153 109.274 210.8 112.125C212.447 114.976 216.093 115.953 218.946 114.307C220.857 113.204 221.926 111.202 221.928 109.144L228.832 105.159L227.124 113.008C226.774 114.616 227.794 116.204 229.403 116.554C231.012 116.904 232.6 115.883 232.95 114.275L235.811 101.131L240.06 98.6788L247.019 102.695V107.6L237.062 116.648C235.844 117.755 235.754 119.641 236.862 120.859C237.969 122.077 239.855 122.166 241.073 121.059L247.019 115.656V123.625C245.236 124.656 244.037 126.582 244.037 128.789C244.037 132.081 246.707 134.75 250 134.75C253.293 134.75 255.963 132.081 255.963 128.789C255.963 126.582 254.764 124.656 252.982 123.625V115.656L258.927 121.059C260.145 122.166 262.031 122.077 263.138 120.859C264.246 119.641 264.156 117.755 262.938 116.648L252.982 107.6V102.695L259.94 98.6788L264.189 101.131L267.05 114.275C267.4 115.883 268.988 116.904 270.597 116.554C272.206 116.204 273.226 114.616 272.876 113.008L271.168 105.159L278.072 109.144C278.074 111.202 279.143 113.204 281.054 114.307C283.907 115.953 287.553 114.976 289.2 112.125C290.847 109.274 289.87 105.628 287.018 103.982C285.106 102.879 282.837 102.953 281.053 103.981L274.15 99.9967L281.803 97.5512C283.371 97.05 284.237 95.3726 283.735 93.8046C283.234 92.2367 281.556 91.3719 279.987 91.8731L267.171 95.9686L262.92 93.5153V85.4847L267.171 83.0313L279.987 87.1268C281.556 87.628 283.234 86.7632 283.735 85.1952C284.237 83.6272 283.371 81.9498 281.803 81.4486L274.15 79.0031L281.054 75.0186C282.838 76.0462 285.106 76.1212 287.018 75.0179C289.87 73.3718 290.847 69.726 289.2 66.8749C287.553 64.0237 283.907 63.0468 281.054 64.6929C279.143 65.7962 278.074 67.7977 278.072 69.8561L271.168 73.8407L272.876 65.9921C273.226 64.3836 272.206 62.796 270.597 62.4461C268.988 62.0961 267.4 63.1164 267.05 64.7249L264.189 77.8688L259.937 80.3232L252.982 76.309V71.4002L262.938 62.3518C264.156 61.2445 264.246 59.3595 263.138 58.1414C262.031 56.9234 260.145 56.8336 258.927 57.9409L252.982 63.3439V55.3748ZM243.043 85.4868V93.5173L250 97.5326L256.957 93.5173V85.4868L250 81.4715L243.043 85.4868Z" fill="#B8D6F2"/>
<path d="M175.963 130.461C175.963 127.169 173.293 124.5 170 124.5V161.721L176.957 165.737V170H182.92V165.735L187.171 163.281L199.987 167.377C201.556 167.878 203.234 167.013 203.735 165.445C204.237 163.877 203.371 162.2 201.803 161.699L194.15 159.253L201.054 155.269C202.838 156.296 205.106 156.371 207.017 155.268C209.87 153.622 210.847 149.976 209.2 147.125C207.553 144.274 203.907 143.297 201.054 144.943C199.143 146.046 198.074 148.048 198.072 150.106L191.168 154.091L192.876 146.242C193.226 144.634 192.206 143.046 190.597 142.696C188.988 142.346 187.4 143.366 187.05 144.975L184.189 158.119L179.937 160.573L172.982 156.559V151.65L182.938 142.602C184.156 141.495 184.246 139.609 183.138 138.391C182.031 137.173 180.145 137.084 178.927 138.191L172.982 143.594V135.625C174.764 134.594 175.963 132.668 175.963 130.461Z" fill="#B8D6F2"/>
<path d="M324.037 130.461C324.037 127.169 326.707 124.5 330 124.5V161.721L323.043 165.737V170H317.08V165.735L312.829 163.281L300.013 167.377C298.444 167.878 296.766 167.013 296.265 165.445C295.764 163.877 296.629 162.2 298.197 161.699L305.85 159.253L298.946 155.269C297.162 156.296 294.894 156.371 292.983 155.268C290.13 153.622 289.153 149.976 290.8 147.125C292.447 144.274 296.093 143.297 298.946 144.943C300.857 146.046 301.926 148.048 301.928 150.106L308.832 154.091L307.124 146.242C306.774 144.634 307.794 143.046 309.403 142.696C311.012 142.346 312.6 143.366 312.95 144.975L315.811 158.119L320.063 160.573L327.018 156.559V151.65L317.062 142.602C315.844 141.495 315.754 139.609 316.862 138.391C317.969 137.173 319.855 137.084 321.073 138.191L327.018 143.594V135.625C325.236 134.594 324.037 132.668 324.037 130.461Z" fill="#B8D6F2"/>
<path d="M175.963 49.5389C175.963 52.8311 173.293 55.5 170 55.5V18.2785L176.957 14.2632V10H182.92V14.2653L187.171 16.7187L199.987 12.6232C201.556 12.122 203.234 12.9868 203.735 14.5548C204.237 16.1228 203.371 17.8002 201.803 18.3014L194.15 20.7468L201.054 24.7314C202.838 23.7038 205.106 23.6288 207.017 24.7321C209.87 26.3782 210.847 30.024 209.2 32.8751C207.553 35.7263 203.907 36.7032 201.054 35.0571C199.143 33.9538 198.074 31.9523 198.072 29.8938L191.168 25.9093L192.876 33.7579C193.226 35.3664 192.206 36.954 190.597 37.3039C188.988 37.6539 187.4 36.6336 187.05 35.0251L184.189 21.8811L179.937 19.4267L172.982 23.441V28.3498L182.938 37.3982C184.156 38.5055 184.246 40.3905 183.138 41.6086C182.031 42.8266 180.145 42.9164 178.927 41.8091L172.982 36.4061V44.3752C174.764 45.4059 175.963 47.3324 175.963 49.5389Z" fill="#B8D6F2"/>
<path d="M324.037 49.5389C324.037 52.8311 326.707 55.5 330 55.5V18.2785L323.043 14.2632V10H317.08V14.2653L312.829 16.7187L300.013 12.6232C298.444 12.122 296.766 12.9868 296.265 14.5548C295.764 16.1228 296.629 17.8002 298.197 18.3014L305.85 20.7468L298.946 24.7314C297.162 23.7038 294.894 23.6288 292.983 24.7321C290.13 26.3782 289.153 30.024 290.8 32.8751C292.447 35.7263 296.093 36.7032 298.946 35.0571C300.857 33.9538 301.926 31.9523 301.928 29.8938L308.832 25.9093L307.124 33.7579C306.774 35.3664 307.794 36.954 309.403 37.3039C311.012 37.6539 312.6 36.6336 312.95 35.0251L315.811 21.8811L320.063 19.4267L327.018 23.441V28.3498L317.062 37.3982C315.844 38.5055 315.754 40.3905 316.862 41.6086C317.969 42.8266 319.855 42.9164 321.073 41.8091L327.018 36.4061V44.3752C325.236 45.4059 324.037 47.3324 324.037 49.5389Z" fill="#B8D6F2"/>
<path d="M170 102C176.627 102 182 96.6274 182 90C182 83.3726 176.627 78 170 78V102Z" fill="#366CB3"/>
<path d="M330 78C323.373 78 318 83.3726 318 90C318 96.6274 323.373 102 330 102V78Z" fill="#366CB3"/>
<path d="M250 22C243.373 22 238 16.6274 238 10H262C262 16.6274 256.627 22 250 22Z" fill="#366CB3"/>
<path d="M250 158C256.627 158 262 163.373 262 170H238C238 163.373 243.373 158 250 158Z" fill="#366CB3"/>
</g>
</g>
<g filter="url(#filter2_d_26_15386)">
<path d="M211.859 221.857L249.865 229.01C251.439 229.306 252.657 227.662 251.897 226.266L193.817 119.541L158.355 129.196L175.464 248.379C175.678 249.873 177.492 250.523 178.624 249.513L208.596 222.76C209.481 221.971 210.688 221.636 211.859 221.857Z" fill="#B8D6F2"/>
</g>
<g filter="url(#filter3_d_26_15386)">
<path d="M109.08 221.857L71.7407 229.01C70.1937 229.306 68.9976 227.662 69.7442 226.266L126.805 119.541L161.645 129.196L144.837 248.379C144.626 249.873 142.844 250.523 141.732 249.513L112.285 222.76C111.416 221.971 110.23 221.636 109.08 221.857Z" fill="#B8D6F2"/>
</g>
<g filter="url(#filter4_d_26_15386)">
<path d="M133.686 91.4413C122.187 81.9909 108.096 70.4104 67.1188 70.0106C65.8191 69.998 64.6471 70.8226 64.2772 72.0686C59.2403 89.0372 53.1393 126.973 64.2316 160.47C64.6312 161.676 65.7876 162.479 67.0586 162.467C108.132 162.065 123.855 150.095 135.958 140.882C143.594 135.069 149.789 130.353 160 130.331C170.211 130.353 176.406 135.069 184.042 140.882C196.145 150.095 211.868 162.065 252.941 162.467C254.212 162.479 255.369 161.676 255.768 160.47C266.861 126.973 260.76 89.0372 255.723 72.0686C255.353 70.8226 254.181 69.998 252.881 70.0106C211.904 70.4104 197.813 81.9909 186.314 91.4413C178.736 97.67 172.283 102.973 160 103.54C147.717 102.973 141.264 97.67 133.686 91.4413Z" fill="#B8D6F2"/>
</g>
<g filter="url(#filter5_dd_26_15386)">
<path d="M148.593 134.131C147.466 132.776 147.241 100.796 148.593 99.6673C149.945 98.3125 170.366 98.5383 171.493 99.6673C172.62 100.796 172.62 133.002 171.493 134.131C170.366 135.26 149.72 135.486 148.593 134.131Z" fill="#B8D6F2"/>
</g>
</g>
<defs>
<filter id="filter0_d_26_15386" x="-4" y="-2" width="328" height="308" filterUnits="userSpaceOnUse" color-interpolation-filters="sRGB">
<feFlood flood-opacity="0" result="BackgroundImageFix"/>
<feColorMatrix in="SourceAlpha" type="matrix" values="0 0 0 0 0 0 0 0 0 0 0 0 0 0 0 0 0 0 127 0" result="hardAlpha"/>
<feOffset dy="2"/>
<feGaussianBlur stdDeviation="2"/>
<feComposite in2="hardAlpha" operator="out"/>
<feColorMatrix type="matrix" values="0 0 0 0 0 0 0 0 0 0 0 0 0 0 0 0 0 0 0.25 0"/>
<feBlend mode="normal" in2="BackgroundImageFix" result="effect1_dropShadow_26_15386"/>
<feBlend mode="normal" in="SourceGraphic" in2="effect1_dropShadow_26_15386" result="shape"/>
</filter>
<filter id="filter1_d_26_15386" x="6" y="8" width="308" height="128" filterUnits="userSpaceOnUse" color-interpolation-filters="sRGB">
<feFlood flood-opacity="0" result="BackgroundImageFix"/>
<feColorMatrix in="SourceAlpha" type="matrix" values="0 0 0 0 0 0 0 0 0 0 0 0 0 0 0 0 0 0 127 0" result="hardAlpha"/>
<feOffset dy="2"/>
<feGaussianBlur stdDeviation="2"/>
<feComposite in2="hardAlpha" operator="out"/>
<feColorMatrix type="matrix" values="0 0 0 0 0 0 0 0 0 0 0 0 0 0 0 0 0 0 0.25 0"/>
<feBlend mode="normal" in2="BackgroundImageFix" result="effect1_dropShadow_26_15386"/>
<feBlend mode="normal" in="SourceGraphic" in2="effect1_dropShadow_26_15386" result="shape"/>
</filter>
<filter id="filter2_d_26_15386" x="158.355" y="119.541" width="95.7742" height="134.459" filterUnits="userSpaceOnUse" color-interpolation-filters="sRGB">
<feFlood flood-opacity="0" result="BackgroundImageFix"/>
<feColorMatrix in="SourceAlpha" type="matrix" values="0 0 0 0 0 0 0 0 0 0 0 0 0 0 0 0 0 0 127 0" result="hardAlpha"/>
<feOffset dx="2" dy="4"/>
<feComposite in2="hardAlpha" operator="out"/>
<feColorMatrix type="matrix" values="0 0 0 0 0 0 0 0 0 0 0 0 0 0 0 0 0 0 0.3 0"/>
<feBlend mode="multiply" in2="BackgroundImageFix" result="effect1_dropShadow_26_15386"/>
<feBlend mode="normal" in="SourceGraphic" in2="effect1_dropShadow_26_15386" result="shape"/>
</filter>
<filter id="filter3_d_26_15386" x="69.5161" y="119.541" width="94.129" height="134.459" filterUnits="userSpaceOnUse" color-interpolation-filters="sRGB">
<feFlood flood-opacity="0" result="BackgroundImageFix"/>
<feColorMatrix in="SourceAlpha" type="matrix" values="0 0 0 0 0 0 0 0 0 0 0 0 0 0 0 0 0 0 127 0" result="hardAlpha"/>
<feOffset dx="2" dy="4"/>
<feComposite in2="hardAlpha" operator="out"/>
<feColorMatrix type="matrix" values="0 0 0 0 0 0 0 0 0 0 0 0 0 0 0 0 0 0 0.3 0"/>
<feBlend mode="multiply" in2="BackgroundImageFix" result="effect1_dropShadow_26_15386"/>
<feBlend mode="normal" in="SourceGraphic" in2="effect1_dropShadow_26_15386" result="shape"/>
</filter>
<filter id="filter4_d_26_15386" x="58" y="70.0105" width="206" height="96.4563" filterUnits="userSpaceOnUse" color-interpolation-filters="sRGB">
<feFlood flood-opacity="0" result="BackgroundImageFix"/>
<feColorMatrix in="SourceAlpha" type="matrix" values="0 0 0 0 0 0 0 0 0 0 0 0 0 0 0 0 0 0 127 0" result="hardAlpha"/>
<feOffset dx="2" dy="4"/>
<feComposite in2="hardAlpha" operator="out"/>
<feColorMatrix type="matrix" values="0 0 0 0 0 0 0 0 0 0 0 0 0 0 0 0 0 0 0.25 0"/>
<feBlend mode="multiply" in2="BackgroundImageFix" result="effect1_dropShadow_26_15386"/>
<feBlend mode="normal" in="SourceGraphic" in2="effect1_dropShadow_26_15386" result="shape"/>
</filter>
<filter id="filter5_dd_26_15386" x="146.661" y="98.7339" width="27.6774" height="40.3303" filterUnits="userSpaceOnUse" color-interpolation-filters="sRGB">
<feFlood flood-opacity="0" result="BackgroundImageFix"/>
<feColorMatrix in="SourceAlpha" type="matrix" values="0 0 0 0 0 0 0 0 0 0 0 0 0 0 0 0 0 0 127 0" result="hardAlpha"/>
<feOffset dx="2" dy="4"/>
<feComposite in2="hardAlpha" operator="out"/>
<feColorMatrix type="matrix" values="0 0 0 0 0 0 0 0 0 0 0 0 0 0 0 0 0 0 0.2 0"/>
<feBlend mode="multiply" in2="BackgroundImageFix" result="effect1_dropShadow_26_15386"/>
<feColorMatrix in="SourceAlpha" type="matrix" values="0 0 0 0 0 0 0 0 0 0 0 0 0 0 0 0 0 0 127 0" result="hardAlpha"/>
<feOffset dx="-1"/>
<feComposite in2="hardAlpha" operator="out"/>
<feColorMatrix type="matrix" values="0 0 0 0 0 0 0 0 0 0 0 0 0 0 0 0 0 0 0.2 0"/>
<feBlend mode="multiply" in2="effect1_dropShadow_26_15386" result="effect2_dropShadow_26_15386"/>
<feBlend mode="normal" in="SourceGraphic" in2="effect2_dropShadow_26_15386" result="shape"/>
</filter>
<clipPath id="clip0_26_15386">
<path d="M10 22C10 15.3726 15.3726 10 22 10H298C304.627 10 310 15.3726 310 22V122C310 126.418 306.418 130 302 130H18C13.5817 130 10 126.418 10 122V22Z" fill="white"/>
</clipPath>
</defs>
</svg>
