<svg width="320" height="300" viewBox="0 0 320 300" fill="none" xmlns="http://www.w3.org/2000/svg">
<g filter="url(#filter0_d_26_15390)">
<g clip-path="url(#clip0_26_15390)">
<rect x="20" y="24" width="280" height="266" rx="12" fill="#FADEF0"/>
<rect x="4" y="24" width="39" height="280" fill="#E895B9"/>
<rect x="82" y="24" width="39" height="280" fill="#E895B9"/>
<rect x="160" y="24" width="39" height="280" fill="#E895B9"/>
<rect x="238" y="24" width="39" height="280" fill="#E895B9"/>
</g>
<g clip-path="url(#clip1_26_15390)">
<path d="M10 22C10 15.3726 15.3726 10 22 10H298C304.627 10 310 15.3726 310 22V122C310 126.418 306.418 130 302 130H18C13.5817 130 10 126.418 10 122V22Z" fill="#E895B9"/>
<rect x="4" y="-63" width="39" height="280" fill="#FADEF0"/>
<rect x="82" y="-63" width="39" height="280" fill="#FADEF0"/>
<rect x="160" y="-63" width="39" height="280" fill="#FADEF0"/>
<rect x="238" y="-63" width="39" height="280" fill="#FADEF0"/>
</g>
<path d="M201.612 102.229L166.615 93.9852L102.493 136.948V177.137L126.607 195.765L171.078 201.234L208.032 177.137L220.325 140.357L214.844 113.564L201.612 102.229Z" fill="#C44982"/>
<g style="mix-blend-mode:multiply" opacity="0.4">
<path d="M201.612 102.229L166.615 93.9852L102.493 136.948V177.137L126.607 195.765L171.078 201.234L208.032 177.137L220.325 140.357L214.844 113.564L201.612 102.229Z" fill="#242424"/>
</g>
<g filter="url(#filter1_d_26_15390)">
<path d="M160.352 230.484C156.594 233.338 151.818 233.021 147.903 230.484L128.252 198.381L153.384 189.582L178.124 198.381L160.352 230.484Z" fill="#C44982"/>
</g>
<g filter="url(#filter2_d_26_15390)">
<path d="M242.716 163.027C240.775 164.105 219.829 171.139 209.598 174.521L213.591 119.985L248.197 139.485C253.677 150.582 245.144 161.68 242.716 163.027Z" fill="#C44982"/>
</g>
<g filter="url(#filter3_d_26_15390)">
<path d="M102.728 89.5464C103.041 83.8391 109.539 75.3575 112.906 75.516C116.226 76.1502 136.316 84.2883 145.946 88.2781L140.622 98.9L105.86 118.479C104.711 110.737 102.477 94.1122 102.728 89.5464Z" fill="#C44982"/>
</g>
<g filter="url(#filter4_d_26_15390)">
<path d="M159.569 63.2295C157.94 64.688 144.798 88.2517 138.43 99.8512L181.178 104.924L193.078 96.6012C185.875 84.6318 172.566 66.1624 169.356 63.2295C167.774 61.7849 161.604 61.4064 159.569 63.2295Z" fill="#C44982"/>
</g>
<path d="M180.991 96.7104C178.585 91.2298 165.353 93.0567 162.346 96.7104L164.15 101.582H180.39L180.991 96.7104Z" fill="#C44982"/>
<path d="M193.157 116.815L209.677 106.985L217.349 124.107L193.157 116.815Z" fill="#C44982"/>
<path d="M191.591 115.467L196.445 102.943L185.562 98.8207L179.769 102.943L191.591 115.467Z" fill="#C44982"/>
<g opacity="0.22">
<g style="mix-blend-mode:multiply">
<path d="M193.157 116.815L209.677 106.985L217.349 124.107L193.157 116.815Z" fill="#242424"/>
</g>
<g style="mix-blend-mode:multiply">
<path d="M191.591 115.467L196.445 102.943L185.562 98.8207L179.769 102.943L191.591 115.467Z" fill="#242424"/>
</g>
</g>
<g filter="url(#filter5_d_26_15390)">
<path d="M224.474 88.2781C224.474 86.6927 220.246 83.4427 218.367 83.8391L178.829 101.199C185.249 101.199 210.694 111.266 217.349 124.107L220.951 125.138C222.125 113.379 224.474 89.5463 224.474 88.2781Z" fill="#C44982"/>
</g>
<path d="M122.614 179.119L117.838 191.326L133.497 198.222L138.978 194.18L122.614 179.119Z" fill="#C44982"/>
<path d="M122.38 177.93L98.1869 158.826V164.93L108.6 187.68L122.38 177.93Z" fill="#C44982"/>
<g opacity="0.22">
<g style="mix-blend-mode:multiply">
<path d="M122.614 179.119L117.838 191.326L133.497 198.222L138.978 194.18L122.614 179.119Z" fill="#242424"/>
</g>
<g style="mix-blend-mode:multiply">
<path d="M122.38 177.93L98.1869 158.826V164.93L108.6 187.68L122.38 177.93Z" fill="#242424"/>
</g>
</g>
<g filter="url(#filter6_d_26_15390)">
<path d="M98.1869 210.43C94.5854 210.43 86.6778 204.881 86.2863 200.125L98.1869 158.826C105.265 180.387 127.86 193.546 138.273 197.43L98.1869 210.43Z" fill="#C44982"/>
</g>
<g filter="url(#filter7_d_26_15390)">
<path d="M73.0232 127.822C74.7076 126.43 99.7969 117.099 112.131 112.607L117.29 148.68L106.329 163.82C88.9483 156.369 73.7856 146.037 71.4445 142.356C70.2914 140.544 70.9177 129.562 73.0232 127.822Z" fill="#C44982"/>
</g>
<g filter="url(#filter8_d_26_15390)">
<path d="M108.522 102.705C109.853 99.6133 112.045 96.6011 116.742 93.4304L160.9 99.6926C158.368 104.475 147.637 114.912 141.248 122.205C134.86 129.497 120.266 141.255 113.767 146.223C111.575 132.747 107.457 105.178 108.522 102.705Z" fill="#C44982"/>
</g>
<g filter="url(#filter9_d_26_15390)">
<path d="M232.068 126.168C230.503 125.217 196.445 116.577 191.278 116.894L192.374 168.576C206.075 162.103 233.509 148.728 233.634 147.015C233.791 144.875 233.634 127.119 232.068 126.168Z" fill="#C44982"/>
</g>
<path d="M197.385 148.284C198.011 142.339 196.602 120.223 192.609 116.339L186.815 118.875L175.462 144.083C182.561 147.465 196.884 153.04 197.385 148.284Z" fill="#C44982"/>
<g style="mix-blend-mode:multiply" opacity="0.22">
<path d="M197.385 148.284C198.011 142.339 196.602 120.223 192.609 116.339L186.815 118.875L175.462 144.083C182.561 147.465 196.884 153.04 197.385 148.284Z" fill="#242424"/>
</g>
<g filter="url(#filter10_d_26_15390)">
<path d="M162.383 96.8103L162.346 96.7104C165.333 93.081 178.41 91.2542 180.942 96.6022L180.943 96.6013L194.331 117.052C192.661 120.038 185.39 125.962 169.669 125.772C153.947 125.582 144.368 118.499 142.933 113.77L162.383 96.8103Z" fill="#C44982"/>
<g style="mix-blend-mode:multiply" opacity="0.22">
<path fill-rule="evenodd" clip-rule="evenodd" d="M162.383 96.8103L162.622 96.6013C166.928 98.8999 174.913 101.357 180.942 96.6022C178.41 91.2542 165.333 93.081 162.346 96.7104L162.383 96.8103Z" fill="#242424"/>
</g>
</g>
<g filter="url(#filter11_d_26_15390)">
<path d="M196.21 186.332L181.1 179.436L190.573 155.735L210.225 161.521L196.21 186.332Z" fill="#C44982"/>
<path d="M182.039 176.582L190.338 190.771L167.868 203.137L182.039 176.582Z" fill="#C44982"/>
</g>
<g opacity="0.22">
<g style="mix-blend-mode:multiply">
<path d="M196.21 186.332L181.1 179.436L190.573 155.735L210.225 161.521L196.21 186.332Z" fill="#242424"/>
</g>
<g style="mix-blend-mode:multiply">
<path d="M182.039 176.582L190.338 190.771L167.868 203.137L182.039 176.582Z" fill="#242424"/>
</g>
</g>
<g filter="url(#filter12_d_26_15390)">
<path d="M208.502 214.472C215.58 213.584 220.272 206.175 221.734 202.582L210.616 159.777L208.267 160.887C200.47 179.101 178.576 196.708 167.868 203.533L208.502 214.472Z" fill="#C44982"/>
</g>
<g filter="url(#filter13_d_26_15390)">
<path d="M170.138 208.923C164.423 207.576 158.629 211.936 150.878 214.076L124.65 183.32C127.599 182.607 137.24 177.343 152.209 172.777C167.179 168.211 180.473 169.184 185.249 170.241L170.138 208.923Z" fill="#C44982"/>
</g>
<g filter="url(#filter14_d_26_15390)">
<path d="M145.006 141.784C142.736 141.546 134.202 144.637 129.348 148.046C129.348 151.296 143.362 169.052 145.006 169.765C146.65 170.478 161.918 158.668 160.508 155.655C159.099 152.643 147.277 142.021 145.006 141.784Z" fill="#C44982"/>
</g>
<g style="mix-blend-mode:multiply" opacity="0.22">
<path d="M145.006 141.784C142.736 141.546 134.202 144.637 129.348 148.046C129.348 151.296 143.362 169.052 145.006 169.765C146.65 170.478 161.918 158.668 160.508 155.655C159.099 152.643 147.277 142.021 145.006 141.784Z" fill="#242424"/>
</g>
<g filter="url(#filter15_d_26_15390)">
<path d="M126.921 145.826C125.824 143.131 133.889 130.131 142.423 113.882C144.867 109.284 189.79 120.223 190.182 123.077C190.573 125.93 179.612 153.278 169.982 152.326C160.352 151.375 128.017 148.522 126.921 145.826Z" fill="#C44982"/>
</g>
<path d="M185.092 171.985C199.42 166.832 201.856 148.472 196.758 147.729C186.423 146.223 191.904 162.79 185.092 171.985Z" fill="#C44982"/>
<g filter="url(#filter16_d_26_15390)">
<path d="M150.174 173.887C152.757 156.131 163.718 126.01 180.16 125.772C192.369 125.595 197.473 140.613 198.79 149.764C200.522 154.767 196.854 167.473 185.515 171.827L185.249 172.223L150.174 173.887Z" fill="#C44982"/>
<g style="mix-blend-mode:multiply" opacity="0.22">
<path d="M185.092 171.985C199.42 166.832 201.856 148.472 196.758 147.729C186.423 146.223 191.904 162.79 185.092 171.985Z" fill="#242424"/>
</g>
</g>
<g filter="url(#filter17_d_26_15390)">
<path d="M112.322 186.577C103.632 172.626 100.578 173.736 98.4642 173.736C96.1154 171.992 106.409 149.689 112.424 138.119C134.972 140.719 147.606 162.237 152.121 174.047C129.322 181.404 114.775 187.608 112.322 186.577Z" fill="#C44982"/>
</g>
</g>
<defs>
<filter id="filter0_d_26_15390" x="-4" y="-2" width="328" height="308" filterUnits="userSpaceOnUse" color-interpolation-filters="sRGB">
<feFlood flood-opacity="0" result="BackgroundImageFix"/>
<feColorMatrix in="SourceAlpha" type="matrix" values="0 0 0 0 0 0 0 0 0 0 0 0 0 0 0 0 0 0 127 0" result="hardAlpha"/>
<feOffset dy="2"/>
<feGaussianBlur stdDeviation="2"/>
<feComposite in2="hardAlpha" operator="out"/>
<feColorMatrix type="matrix" values="0 0 0 0 0 0 0 0 0 0 0 0 0 0 0 0 0 0 0.25 0"/>
<feBlend mode="normal" in2="BackgroundImageFix" result="effect1_dropShadow_26_15390"/>
<feBlend mode="normal" in="SourceGraphic" in2="effect1_dropShadow_26_15390" result="shape"/>
</filter>
<filter id="filter1_d_26_15390" x="128.252" y="189.582" width="49.8729" height="45.9252" filterUnits="userSpaceOnUse" color-interpolation-filters="sRGB">
<feFlood flood-opacity="0" result="BackgroundImageFix"/>
<feColorMatrix in="SourceAlpha" type="matrix" values="0 0 0 0 0 0 0 0 0 0 0 0 0 0 0 0 0 0 127 0" result="hardAlpha"/>
<feOffset dy="3"/>
<feComposite in2="hardAlpha" operator="out"/>
<feColorMatrix type="matrix" values="0 0 0 0 0 0 0 0 0 0 0 0 0 0 0 0 0 0 0.2 0"/>
<feBlend mode="multiply" in2="BackgroundImageFix" result="effect1_dropShadow_26_15390"/>
<feBlend mode="normal" in="SourceGraphic" in2="effect1_dropShadow_26_15390" result="shape"/>
</filter>
<filter id="filter2_d_26_15390" x="209.598" y="119.985" width="40.4017" height="57.5361" filterUnits="userSpaceOnUse" color-interpolation-filters="sRGB">
<feFlood flood-opacity="0" result="BackgroundImageFix"/>
<feColorMatrix in="SourceAlpha" type="matrix" values="0 0 0 0 0 0 0 0 0 0 0 0 0 0 0 0 0 0 127 0" result="hardAlpha"/>
<feOffset dy="3"/>
<feComposite in2="hardAlpha" operator="out"/>
<feColorMatrix type="matrix" values="0 0 0 0 0 0 0 0 0 0 0 0 0 0 0 0 0 0 0.2 0"/>
<feBlend mode="multiply" in2="BackgroundImageFix" result="effect1_dropShadow_26_15390"/>
<feBlend mode="normal" in="SourceGraphic" in2="effect1_dropShadow_26_15390" result="shape"/>
</filter>
<filter id="filter3_d_26_15390" x="102.708" y="75.5139" width="43.2374" height="45.9653" filterUnits="userSpaceOnUse" color-interpolation-filters="sRGB">
<feFlood flood-opacity="0" result="BackgroundImageFix"/>
<feColorMatrix in="SourceAlpha" type="matrix" values="0 0 0 0 0 0 0 0 0 0 0 0 0 0 0 0 0 0 127 0" result="hardAlpha"/>
<feOffset dy="3"/>
<feComposite in2="hardAlpha" operator="out"/>
<feColorMatrix type="matrix" values="0 0 0 0 0 0 0 0 0 0 0 0 0 0 0 0 0 0 0.2 0"/>
<feBlend mode="multiply" in2="BackgroundImageFix" result="effect1_dropShadow_26_15390"/>
<feBlend mode="normal" in="SourceGraphic" in2="effect1_dropShadow_26_15390" result="shape"/>
</filter>
<filter id="filter4_d_26_15390" x="138.43" y="62" width="54.6487" height="45.9243" filterUnits="userSpaceOnUse" color-interpolation-filters="sRGB">
<feFlood flood-opacity="0" result="BackgroundImageFix"/>
<feColorMatrix in="SourceAlpha" type="matrix" values="0 0 0 0 0 0 0 0 0 0 0 0 0 0 0 0 0 0 127 0" result="hardAlpha"/>
<feOffset dy="3"/>
<feComposite in2="hardAlpha" operator="out"/>
<feColorMatrix type="matrix" values="0 0 0 0 0 0 0 0 0 0 0 0 0 0 0 0 0 0 0.2 0"/>
<feBlend mode="multiply" in2="BackgroundImageFix" result="effect1_dropShadow_26_15390"/>
<feBlend mode="normal" in="SourceGraphic" in2="effect1_dropShadow_26_15390" result="shape"/>
</filter>
<filter id="filter5_d_26_15390" x="178.829" y="83.8058" width="45.645" height="44.3317" filterUnits="userSpaceOnUse" color-interpolation-filters="sRGB">
<feFlood flood-opacity="0" result="BackgroundImageFix"/>
<feColorMatrix in="SourceAlpha" type="matrix" values="0 0 0 0 0 0 0 0 0 0 0 0 0 0 0 0 0 0 127 0" result="hardAlpha"/>
<feOffset dy="3"/>
<feComposite in2="hardAlpha" operator="out"/>
<feColorMatrix type="matrix" values="0 0 0 0 0 0 0 0 0 0 0 0 0 0 0 0 0 0 0.1 0"/>
<feBlend mode="multiply" in2="BackgroundImageFix" result="effect1_dropShadow_26_15390"/>
<feBlend mode="normal" in="SourceGraphic" in2="effect1_dropShadow_26_15390" result="shape"/>
</filter>
<filter id="filter6_d_26_15390" x="86.2863" y="158.826" width="51.9868" height="54.6033" filterUnits="userSpaceOnUse" color-interpolation-filters="sRGB">
<feFlood flood-opacity="0" result="BackgroundImageFix"/>
<feColorMatrix in="SourceAlpha" type="matrix" values="0 0 0 0 0 0 0 0 0 0 0 0 0 0 0 0 0 0 127 0" result="hardAlpha"/>
<feOffset dy="3"/>
<feComposite in2="hardAlpha" operator="out"/>
<feColorMatrix type="matrix" values="0 0 0 0 0 0 0 0 0 0 0 0 0 0 0 0 0 0 0.2 0"/>
<feBlend mode="multiply" in2="BackgroundImageFix" result="effect1_dropShadow_26_15390"/>
<feBlend mode="normal" in="SourceGraphic" in2="effect1_dropShadow_26_15390" result="shape"/>
</filter>
<filter id="filter7_d_26_15390" x="70.8734" y="112.607" width="46.4171" height="54.213" filterUnits="userSpaceOnUse" color-interpolation-filters="sRGB">
<feFlood flood-opacity="0" result="BackgroundImageFix"/>
<feColorMatrix in="SourceAlpha" type="matrix" values="0 0 0 0 0 0 0 0 0 0 0 0 0 0 0 0 0 0 127 0" result="hardAlpha"/>
<feOffset dy="3"/>
<feComposite in2="hardAlpha" operator="out"/>
<feColorMatrix type="matrix" values="0 0 0 0 0 0 0 0 0 0 0 0 0 0 0 0 0 0 0.2 0"/>
<feBlend mode="multiply" in2="BackgroundImageFix" result="effect1_dropShadow_26_15390"/>
<feBlend mode="normal" in="SourceGraphic" in2="effect1_dropShadow_26_15390" result="shape"/>
</filter>
<filter id="filter8_d_26_15390" x="108.349" y="93.4304" width="52.551" height="55.7922" filterUnits="userSpaceOnUse" color-interpolation-filters="sRGB">
<feFlood flood-opacity="0" result="BackgroundImageFix"/>
<feColorMatrix in="SourceAlpha" type="matrix" values="0 0 0 0 0 0 0 0 0 0 0 0 0 0 0 0 0 0 127 0" result="hardAlpha"/>
<feOffset dy="3"/>
<feComposite in2="hardAlpha" operator="out"/>
<feColorMatrix type="matrix" values="0 0 0 0 0 0 0 0 0 0 0 0 0 0 0 0 0 0 0.2 0"/>
<feBlend mode="multiply" in2="BackgroundImageFix" result="effect1_dropShadow_26_15390"/>
<feBlend mode="normal" in="SourceGraphic" in2="effect1_dropShadow_26_15390" result="shape"/>
</filter>
<filter id="filter9_d_26_15390" x="191.278" y="116.885" width="42.4045" height="54.691" filterUnits="userSpaceOnUse" color-interpolation-filters="sRGB">
<feFlood flood-opacity="0" result="BackgroundImageFix"/>
<feColorMatrix in="SourceAlpha" type="matrix" values="0 0 0 0 0 0 0 0 0 0 0 0 0 0 0 0 0 0 127 0" result="hardAlpha"/>
<feOffset dy="3"/>
<feComposite in2="hardAlpha" operator="out"/>
<feColorMatrix type="matrix" values="0 0 0 0 0 0 0 0 0 0 0 0 0 0 0 0 0 0 0.2 0"/>
<feBlend mode="multiply" in2="BackgroundImageFix" result="effect1_dropShadow_26_15390"/>
<feBlend mode="normal" in="SourceGraphic" in2="effect1_dropShadow_26_15390" result="shape"/>
</filter>
<filter id="filter10_d_26_15390" x="140.933" y="93.2515" width="53.398" height="32.5248" filterUnits="userSpaceOnUse" color-interpolation-filters="sRGB">
<feFlood flood-opacity="0" result="BackgroundImageFix"/>
<feColorMatrix in="SourceAlpha" type="matrix" values="0 0 0 0 0 0 0 0 0 0 0 0 0 0 0 0 0 0 127 0" result="hardAlpha"/>
<feOffset dx="-2"/>
<feComposite in2="hardAlpha" operator="out"/>
<feColorMatrix type="matrix" values="0 0 0 0 0 0 0 0 0 0 0 0 0 0 0 0 0 0 0.2 0"/>
<feBlend mode="normal" in2="BackgroundImageFix" result="effect1_dropShadow_26_15390"/>
<feBlend mode="normal" in="SourceGraphic" in2="effect1_dropShadow_26_15390" result="shape"/>
</filter>
<filter id="filter11_d_26_15390" x="157.868" y="147.735" width="62.3567" height="67.4022" filterUnits="userSpaceOnUse" color-interpolation-filters="sRGB">
<feFlood flood-opacity="0" result="BackgroundImageFix"/>
<feColorMatrix in="SourceAlpha" type="matrix" values="0 0 0 0 0 0 0 0 0 0 0 0 0 0 0 0 0 0 127 0" result="hardAlpha"/>
<feOffset dy="2"/>
<feGaussianBlur stdDeviation="5"/>
<feComposite in2="hardAlpha" operator="out"/>
<feColorMatrix type="matrix" values="0 0 0 0 0 0 0 0 0 0 0 0 0 0 0 0 0 0 0.25 0"/>
<feBlend mode="normal" in2="BackgroundImageFix" result="effect1_dropShadow_26_15390"/>
<feBlend mode="normal" in="SourceGraphic" in2="effect1_dropShadow_26_15390" result="shape"/>
</filter>
<filter id="filter12_d_26_15390" x="167.868" y="159.777" width="53.8658" height="57.6947" filterUnits="userSpaceOnUse" color-interpolation-filters="sRGB">
<feFlood flood-opacity="0" result="BackgroundImageFix"/>
<feColorMatrix in="SourceAlpha" type="matrix" values="0 0 0 0 0 0 0 0 0 0 0 0 0 0 0 0 0 0 127 0" result="hardAlpha"/>
<feOffset dy="3"/>
<feComposite in2="hardAlpha" operator="out"/>
<feColorMatrix type="matrix" values="0 0 0 0 0 0 0 0 0 0 0 0 0 0 0 0 0 0 0.2 0"/>
<feBlend mode="multiply" in2="BackgroundImageFix" result="effect1_dropShadow_26_15390"/>
<feBlend mode="normal" in="SourceGraphic" in2="effect1_dropShadow_26_15390" result="shape"/>
</filter>
<filter id="filter13_d_26_15390" x="124.65" y="169.358" width="60.5991" height="47.7181" filterUnits="userSpaceOnUse" color-interpolation-filters="sRGB">
<feFlood flood-opacity="0" result="BackgroundImageFix"/>
<feColorMatrix in="SourceAlpha" type="matrix" values="0 0 0 0 0 0 0 0 0 0 0 0 0 0 0 0 0 0 127 0" result="hardAlpha"/>
<feOffset dy="3"/>
<feComposite in2="hardAlpha" operator="out"/>
<feColorMatrix type="matrix" values="0 0 0 0 0 0 0 0 0 0 0 0 0 0 0 0 0 0 0.2 0"/>
<feBlend mode="multiply" in2="BackgroundImageFix" result="effect1_dropShadow_26_15390"/>
<feBlend mode="normal" in="SourceGraphic" in2="effect1_dropShadow_26_15390" result="shape"/>
</filter>
<filter id="filter14_d_26_15390" x="119.348" y="133.771" width="51.2525" height="48.0253" filterUnits="userSpaceOnUse" color-interpolation-filters="sRGB">
<feFlood flood-opacity="0" result="BackgroundImageFix"/>
<feColorMatrix in="SourceAlpha" type="matrix" values="0 0 0 0 0 0 0 0 0 0 0 0 0 0 0 0 0 0 127 0" result="hardAlpha"/>
<feOffset dy="2"/>
<feGaussianBlur stdDeviation="5"/>
<feComposite in2="hardAlpha" operator="out"/>
<feColorMatrix type="matrix" values="0 0 0 0 0 0 0 0 0 0 0 0 0 0 0 0 0 0 0.25 0"/>
<feBlend mode="normal" in2="BackgroundImageFix" result="effect1_dropShadow_26_15390"/>
<feBlend mode="normal" in="SourceGraphic" in2="effect1_dropShadow_26_15390" result="shape"/>
</filter>
<filter id="filter15_d_26_15390" x="125.82" y="110.768" width="64.3715" height="41.5828" filterUnits="userSpaceOnUse" color-interpolation-filters="sRGB">
<feFlood flood-opacity="0" result="BackgroundImageFix"/>
<feColorMatrix in="SourceAlpha" type="matrix" values="0 0 0 0 0 0 0 0 0 0 0 0 0 0 0 0 0 0 127 0" result="hardAlpha"/>
<feOffset dx="-1" dy="-2"/>
<feComposite in2="hardAlpha" operator="out"/>
<feColorMatrix type="matrix" values="0 0 0 0 0 0 0 0 0 0 0 0 0 0 0 0 0 0 0.2 0"/>
<feBlend mode="multiply" in2="BackgroundImageFix" result="effect1_dropShadow_26_15390"/>
<feBlend mode="normal" in="SourceGraphic" in2="effect1_dropShadow_26_15390" result="shape"/>
</filter>
<filter id="filter16_d_26_15390" x="148.174" y="125.77" width="51.0239" height="51.117" filterUnits="userSpaceOnUse" color-interpolation-filters="sRGB">
<feFlood flood-opacity="0" result="BackgroundImageFix"/>
<feColorMatrix in="SourceAlpha" type="matrix" values="0 0 0 0 0 0 0 0 0 0 0 0 0 0 0 0 0 0 127 0" result="hardAlpha"/>
<feOffset dx="-2" dy="3"/>
<feComposite in2="hardAlpha" operator="out"/>
<feColorMatrix type="matrix" values="0 0 0 0 0 0 0 0 0 0 0 0 0 0 0 0 0 0 0.2 0"/>
<feBlend mode="normal" in2="BackgroundImageFix" result="effect1_dropShadow_26_15390"/>
<feBlend mode="normal" in="SourceGraphic" in2="effect1_dropShadow_26_15390" result="shape"/>
</filter>
<filter id="filter17_d_26_15390" x="98.1219" y="138.119" width="53.9988" height="51.5704" filterUnits="userSpaceOnUse" color-interpolation-filters="sRGB">
<feFlood flood-opacity="0" result="BackgroundImageFix"/>
<feColorMatrix in="SourceAlpha" type="matrix" values="0 0 0 0 0 0 0 0 0 0 0 0 0 0 0 0 0 0 127 0" result="hardAlpha"/>
<feOffset dy="3"/>
<feComposite in2="hardAlpha" operator="out"/>
<feColorMatrix type="matrix" values="0 0 0 0 0 0 0 0 0 0 0 0 0 0 0 0 0 0 0.2 0"/>
<feBlend mode="multiply" in2="BackgroundImageFix" result="effect1_dropShadow_26_15390"/>
<feBlend mode="normal" in="SourceGraphic" in2="effect1_dropShadow_26_15390" result="shape"/>
</filter>
<clipPath id="clip0_26_15390">
<rect x="20" y="24" width="280" height="266" rx="12" fill="white"/>
</clipPath>
<clipPath id="clip1_26_15390">
<path d="M10 22C10 15.3726 15.3726 10 22 10H298C304.627 10 310 15.3726 310 22V122C310 126.418 306.418 130 302 130H18C13.5817 130 10 126.418 10 122V22Z" fill="white"/>
</clipPath>
</defs>
</svg>
