<svg width="320" height="300" viewBox="0 0 320 300" fill="none" xmlns="http://www.w3.org/2000/svg">
<g filter="url(#filter0_d_26_15394)">
<g clip-path="url(#clip0_26_15394)">
<rect x="20" y="24" width="280" height="266" rx="12" fill="#690A25"/>
<g clip-path="url(#clip1_26_15394)">
<rect x="54.8572" y="134.014" width="10.2857" height="10.9859" fill="#8EB574"/>
<path d="M30 134.014L60 99.3661L90 134.014H30Z" fill="#477D49"/>
<path d="M36.8571 118.803L60.4285 90.9155L84 118.803H36.8571Z" fill="#8EB574"/>
<path d="M42.8572 104.437L60 85L77.1428 104.437H42.8572Z" fill="#477D49"/>
<rect x="104.857" y="68.0142" width="10.2857" height="10.9859" fill="#8EB574"/>
<path d="M80 68.014L110 33.3661L140 68.014H80Z" fill="#477D49"/>
<path d="M86.857 52.8028L110.428 24.9155L134 52.8028L86.857 52.8028Z" fill="#8EB574"/>
<path d="M92.8572 38.4366L110 19L127.143 38.4366H92.8572Z" fill="#477D49"/>
<path d="M-20 68.014L10 33.3661L40 68.014H-20Z" fill="#477D49"/>
<path d="M-13.1429 52.8028L10.4286 24.9155L34 52.8028L-13.1429 52.8028Z" fill="#8EB574"/>
<path d="M-7.14286 38.4366L9.99998 19L27.1428 38.4366H-7.14286Z" fill="#477D49"/>
</g>
<g clip-path="url(#clip2_26_15394)">
<rect x="154.857" y="134.014" width="10.2857" height="10.9859" fill="#8EB574"/>
<path d="M130 134.014L160 99.3661L190 134.014H130Z" fill="#477D49"/>
<path d="M136.857 118.803L160.429 90.9155L184 118.803H136.857Z" fill="#8EB574"/>
<path d="M142.857 104.437L160 85L177.143 104.437H142.857Z" fill="#477D49"/>
<rect x="204.857" y="68.0142" width="10.2857" height="10.9859" fill="#8EB574"/>
<path d="M180 68.014L210 33.3661L240 68.014H180Z" fill="#477D49"/>
<path d="M186.857 52.8028L210.428 24.9155L234 52.8028L186.857 52.8028Z" fill="#8EB574"/>
<path d="M192.857 38.4366L210 19L227.143 38.4366H192.857Z" fill="#477D49"/>
<rect x="104.857" y="68.0142" width="10.2857" height="10.9859" fill="#8EB574"/>
<path d="M80 68.014L110 33.3661L140 68.014H80Z" fill="#477D49"/>
<path d="M86.8571 52.8028L110.429 24.9155L134 52.8028L86.8571 52.8028Z" fill="#8EB574"/>
<path d="M92.8571 38.4366L110 19L127.143 38.4366H92.8571Z" fill="#477D49"/>
</g>
<g clip-path="url(#clip3_26_15394)">
<rect x="254.857" y="134.014" width="10.2857" height="10.9859" fill="#8EB574"/>
<path d="M230 134.014L260 99.3661L290 134.014H230Z" fill="#477D49"/>
<path d="M236.857 118.803L260.429 90.9155L284 118.803H236.857Z" fill="#8EB574"/>
<path d="M242.857 104.437L260 85L277.143 104.437H242.857Z" fill="#477D49"/>
<path d="M280 68.014L310 33.3661L340 68.014H280Z" fill="#477D49"/>
<path d="M286.857 52.8028L310.428 24.9155L334 52.8028L286.857 52.8028Z" fill="#8EB574"/>
<path d="M292.857 38.4366L310 19L327.143 38.4366H292.857Z" fill="#477D49"/>
<rect x="204.857" y="68.0142" width="10.2857" height="10.9859" fill="#8EB574"/>
<path d="M180 68.014L210 33.3661L240 68.014H180Z" fill="#477D49"/>
<path d="M186.857 52.8028L210.429 24.9155L234 52.8028L186.857 52.8028Z" fill="#8EB574"/>
<path d="M192.857 38.4366L210 19L227.143 38.4366H192.857Z" fill="#477D49"/>
</g>
<g clip-path="url(#clip4_26_15394)">
<rect x="54.8572" y="272.014" width="10.2857" height="10.9859" fill="#8EB574"/>
<path d="M30 272.014L60 237.366L90 272.014H30Z" fill="#477D49"/>
<path d="M36.8571 256.803L60.4285 228.915L84 256.803H36.8571Z" fill="#8EB574"/>
<path d="M42.8572 242.437L60 223L77.1428 242.437H42.8572Z" fill="#477D49"/>
<rect x="104.857" y="206.014" width="10.2857" height="10.9859" fill="#8EB574"/>
<path d="M80 206.014L110 171.366L140 206.014H80Z" fill="#477D49"/>
<path d="M86.857 190.803L110.428 162.915L134 190.803H86.857Z" fill="#8EB574"/>
<path d="M92.8572 176.437L110 157L127.143 176.437H92.8572Z" fill="#477D49"/>
<path d="M-20 206.014L10 171.366L40 206.014H-20Z" fill="#477D49"/>
<path d="M-13.1429 190.803L10.4286 162.915L34 190.803H-13.1429Z" fill="#8EB574"/>
<path d="M-7.14286 176.437L9.99998 157L27.1428 176.437H-7.14286Z" fill="#477D49"/>
</g>
<g clip-path="url(#clip5_26_15394)">
<rect x="154.857" y="272.014" width="10.2857" height="10.9859" fill="#8EB574"/>
<path d="M130 272.014L160 237.366L190 272.014H130Z" fill="#477D49"/>
<path d="M136.857 256.803L160.429 228.915L184 256.803H136.857Z" fill="#8EB574"/>
<path d="M142.857 242.437L160 223L177.143 242.437H142.857Z" fill="#477D49"/>
<rect x="204.857" y="206.014" width="10.2857" height="10.9859" fill="#8EB574"/>
<path d="M180 206.014L210 171.366L240 206.014H180Z" fill="#477D49"/>
<path d="M186.857 190.803L210.428 162.915L234 190.803H186.857Z" fill="#8EB574"/>
<path d="M192.857 176.437L210 157L227.143 176.437H192.857Z" fill="#477D49"/>
<rect x="104.857" y="206.014" width="10.2857" height="10.9859" fill="#8EB574"/>
<path d="M80 206.014L110 171.366L140 206.014H80Z" fill="#477D49"/>
<path d="M86.8571 190.803L110.429 162.915L134 190.803H86.8571Z" fill="#8EB574"/>
<path d="M92.8571 176.437L110 157L127.143 176.437H92.8571Z" fill="#477D49"/>
</g>
<g clip-path="url(#clip6_26_15394)">
<rect x="254.857" y="272.014" width="10.2857" height="10.9859" fill="#8EB574"/>
<path d="M230 272.014L260 237.366L290 272.014H230Z" fill="#477D49"/>
<path d="M236.857 256.803L260.429 228.915L284 256.803H236.857Z" fill="#8EB574"/>
<path d="M242.857 242.437L260 223L277.143 242.437H242.857Z" fill="#477D49"/>
<path d="M280 206.014L310 171.366L340 206.014H280Z" fill="#477D49"/>
<path d="M286.857 190.803L310.428 162.915L334 190.803H286.857Z" fill="#8EB574"/>
<path d="M292.857 176.437L310 157L327.143 176.437H292.857Z" fill="#477D49"/>
<rect x="204.857" y="206.014" width="10.2857" height="10.9859" fill="#8EB574"/>
<path d="M180 206.014L210 171.366L240 206.014H180Z" fill="#477D49"/>
<path d="M186.857 190.803L210.429 162.915L234 190.803H186.857Z" fill="#8EB574"/>
<path d="M192.857 176.437L210 157L227.143 176.437H192.857Z" fill="#477D49"/>
</g>
</g>
<g filter="url(#filter1_d_26_15394)">
<path d="M10 22C10 15.3726 15.3726 10 22 10H298C304.627 10 310 15.3726 310 22V122C310 126.418 306.418 130 302 130H18C13.5817 130 10 126.418 10 122V22Z" fill="#1B4F35"/>
</g>
<g filter="url(#filter2_d_26_15394)">
<path d="M211.859 221.857L249.865 229.01C251.439 229.306 252.657 227.662 251.897 226.266L193.817 119.541L158.355 129.196L175.464 248.379C175.678 249.873 177.492 250.523 178.624 249.513L208.596 222.76C209.481 221.971 210.688 221.636 211.859 221.857Z" fill="#477D49"/>
</g>
<g filter="url(#filter3_d_26_15394)">
<path d="M109.08 221.857L71.7407 229.01C70.1937 229.306 68.9976 227.662 69.7442 226.266L126.805 119.541L161.645 129.196L144.837 248.379C144.626 249.873 142.844 250.523 141.732 249.513L112.285 222.76C111.416 221.971 110.23 221.636 109.08 221.857Z" fill="#477D49"/>
</g>
<g filter="url(#filter4_d_26_15394)">
<path d="M133.686 91.4413C122.187 81.9909 108.096 70.4104 67.1188 70.0106C65.8191 69.998 64.6471 70.8226 64.2772 72.0686C59.2403 89.0372 53.1393 126.973 64.2316 160.47C64.6312 161.676 65.7876 162.479 67.0586 162.467C108.132 162.065 123.855 150.095 135.958 140.882C143.594 135.069 149.789 130.353 160 130.331C170.211 130.353 176.406 135.069 184.042 140.882C196.145 150.095 211.868 162.065 252.941 162.467C254.212 162.479 255.369 161.676 255.768 160.47C266.861 126.973 260.76 89.0372 255.723 72.0686C255.353 70.8226 254.181 69.998 252.881 70.0106C211.904 70.4104 197.813 81.9909 186.314 91.4413C178.736 97.67 172.283 102.973 160 103.54C147.717 102.973 141.264 97.67 133.686 91.4413Z" fill="#477D49"/>
</g>
<g filter="url(#filter5_dd_26_15394)">
<path d="M148.593 134.131C147.466 132.776 147.241 100.796 148.593 99.6673C149.945 98.3125 170.366 98.5383 171.493 99.6673C172.62 100.796 172.62 133.002 171.493 134.131C170.366 135.26 149.72 135.486 148.593 134.131Z" fill="#477D49"/>
</g>
</g>
<defs>
<filter id="filter0_d_26_15394" x="-4" y="-2" width="328" height="308" filterUnits="userSpaceOnUse" color-interpolation-filters="sRGB">
<feFlood flood-opacity="0" result="BackgroundImageFix"/>
<feColorMatrix in="SourceAlpha" type="matrix" values="0 0 0 0 0 0 0 0 0 0 0 0 0 0 0 0 0 0 127 0" result="hardAlpha"/>
<feOffset dy="2"/>
<feGaussianBlur stdDeviation="2"/>
<feComposite in2="hardAlpha" operator="out"/>
<feColorMatrix type="matrix" values="0 0 0 0 0 0 0 0 0 0 0 0 0 0 0 0 0 0 0.25 0"/>
<feBlend mode="normal" in2="BackgroundImageFix" result="effect1_dropShadow_26_15394"/>
<feBlend mode="normal" in="SourceGraphic" in2="effect1_dropShadow_26_15394" result="shape"/>
</filter>
<filter id="filter1_d_26_15394" x="6" y="8" width="308" height="128" filterUnits="userSpaceOnUse" color-interpolation-filters="sRGB">
<feFlood flood-opacity="0" result="BackgroundImageFix"/>
<feColorMatrix in="SourceAlpha" type="matrix" values="0 0 0 0 0 0 0 0 0 0 0 0 0 0 0 0 0 0 127 0" result="hardAlpha"/>
<feOffset dy="2"/>
<feGaussianBlur stdDeviation="2"/>
<feComposite in2="hardAlpha" operator="out"/>
<feColorMatrix type="matrix" values="0 0 0 0 0 0 0 0 0 0 0 0 0 0 0 0 0 0 0.25 0"/>
<feBlend mode="normal" in2="BackgroundImageFix" result="effect1_dropShadow_26_15394"/>
<feBlend mode="normal" in="SourceGraphic" in2="effect1_dropShadow_26_15394" result="shape"/>
</filter>
<filter id="filter2_d_26_15394" x="158.355" y="119.541" width="95.7742" height="134.459" filterUnits="userSpaceOnUse" color-interpolation-filters="sRGB">
<feFlood flood-opacity="0" result="BackgroundImageFix"/>
<feColorMatrix in="SourceAlpha" type="matrix" values="0 0 0 0 0 0 0 0 0 0 0 0 0 0 0 0 0 0 127 0" result="hardAlpha"/>
<feOffset dx="2" dy="4"/>
<feComposite in2="hardAlpha" operator="out"/>
<feColorMatrix type="matrix" values="0 0 0 0 0 0 0 0 0 0 0 0 0 0 0 0 0 0 0.3 0"/>
<feBlend mode="multiply" in2="BackgroundImageFix" result="effect1_dropShadow_26_15394"/>
<feBlend mode="normal" in="SourceGraphic" in2="effect1_dropShadow_26_15394" result="shape"/>
</filter>
<filter id="filter3_d_26_15394" x="69.5161" y="119.541" width="94.129" height="134.459" filterUnits="userSpaceOnUse" color-interpolation-filters="sRGB">
<feFlood flood-opacity="0" result="BackgroundImageFix"/>
<feColorMatrix in="SourceAlpha" type="matrix" values="0 0 0 0 0 0 0 0 0 0 0 0 0 0 0 0 0 0 127 0" result="hardAlpha"/>
<feOffset dx="2" dy="4"/>
<feComposite in2="hardAlpha" operator="out"/>
<feColorMatrix type="matrix" values="0 0 0 0 0 0 0 0 0 0 0 0 0 0 0 0 0 0 0.3 0"/>
<feBlend mode="multiply" in2="BackgroundImageFix" result="effect1_dropShadow_26_15394"/>
<feBlend mode="normal" in="SourceGraphic" in2="effect1_dropShadow_26_15394" result="shape"/>
</filter>
<filter id="filter4_d_26_15394" x="58" y="70.0105" width="206" height="96.4563" filterUnits="userSpaceOnUse" color-interpolation-filters="sRGB">
<feFlood flood-opacity="0" result="BackgroundImageFix"/>
<feColorMatrix in="SourceAlpha" type="matrix" values="0 0 0 0 0 0 0 0 0 0 0 0 0 0 0 0 0 0 127 0" result="hardAlpha"/>
<feOffset dx="2" dy="4"/>
<feComposite in2="hardAlpha" operator="out"/>
<feColorMatrix type="matrix" values="0 0 0 0 0 0 0 0 0 0 0 0 0 0 0 0 0 0 0.25 0"/>
<feBlend mode="multiply" in2="BackgroundImageFix" result="effect1_dropShadow_26_15394"/>
<feBlend mode="normal" in="SourceGraphic" in2="effect1_dropShadow_26_15394" result="shape"/>
</filter>
<filter id="filter5_dd_26_15394" x="146.661" y="98.7339" width="27.6774" height="40.3303" filterUnits="userSpaceOnUse" color-interpolation-filters="sRGB">
<feFlood flood-opacity="0" result="BackgroundImageFix"/>
<feColorMatrix in="SourceAlpha" type="matrix" values="0 0 0 0 0 0 0 0 0 0 0 0 0 0 0 0 0 0 127 0" result="hardAlpha"/>
<feOffset dx="2" dy="4"/>
<feComposite in2="hardAlpha" operator="out"/>
<feColorMatrix type="matrix" values="0 0 0 0 0 0 0 0 0 0 0 0 0 0 0 0 0 0 0.2 0"/>
<feBlend mode="multiply" in2="BackgroundImageFix" result="effect1_dropShadow_26_15394"/>
<feColorMatrix in="SourceAlpha" type="matrix" values="0 0 0 0 0 0 0 0 0 0 0 0 0 0 0 0 0 0 127 0" result="hardAlpha"/>
<feOffset dx="-1"/>
<feComposite in2="hardAlpha" operator="out"/>
<feColorMatrix type="matrix" values="0 0 0 0 0 0 0 0 0 0 0 0 0 0 0 0 0 0 0.2 0"/>
<feBlend mode="multiply" in2="effect1_dropShadow_26_15394" result="effect2_dropShadow_26_15394"/>
<feBlend mode="normal" in="SourceGraphic" in2="effect2_dropShadow_26_15394" result="shape"/>
</filter>
<clipPath id="clip0_26_15394">
<rect x="20" y="24" width="280" height="266" rx="12" fill="white"/>
</clipPath>
<clipPath id="clip1_26_15394">
<rect width="100" height="138" fill="white" transform="translate(10 19)"/>
</clipPath>
<clipPath id="clip2_26_15394">
<rect width="100" height="138" fill="white" transform="translate(110 19)"/>
</clipPath>
<clipPath id="clip3_26_15394">
<rect width="100" height="138" fill="white" transform="translate(210 19)"/>
</clipPath>
<clipPath id="clip4_26_15394">
<rect width="100" height="138" fill="white" transform="translate(10 157)"/>
</clipPath>
<clipPath id="clip5_26_15394">
<rect width="100" height="138" fill="white" transform="translate(110 157)"/>
</clipPath>
<clipPath id="clip6_26_15394">
<rect width="100" height="138" fill="white" transform="translate(210 157)"/>
</clipPath>
</defs>
</svg>
