<svg width="320" height="300" viewBox="0 0 320 300" fill="none" xmlns="http://www.w3.org/2000/svg">
<g filter="url(#filter0_d_26_15378)">
<g clip-path="url(#clip0_26_15378)">
<rect x="20" y="24" width="280" height="266" rx="12" fill="#8C0B04"/>
<g clip-path="url(#clip1_26_15378)">
<path d="M40 37H80V77H40V37Z" fill="#242424"/>
<g clip-path="url(#clip2_26_15378)">
<path d="M39 -4L81 38" stroke="#242424" stroke-width="6"/>
<path d="M26 -2L68 40" stroke="#242424" stroke-width="6"/>
<path d="M11 -2L53 40" stroke="#242424" stroke-width="6"/>
<path d="M52 -6L94 36" stroke="#242424" stroke-width="6"/>
<path d="M67 -6L109 36" stroke="#242424" stroke-width="6"/>
</g>
<g clip-path="url(#clip3_26_15378)">
<path d="M-1 36L41 78" stroke="#242424" stroke-width="6"/>
<path d="M-14 38L28 80" stroke="#242424" stroke-width="6"/>
<path d="M12 34L54 76" stroke="#242424" stroke-width="6"/>
<path d="M27 34L69 76" stroke="#242424" stroke-width="6"/>
</g>
</g>
<g clip-path="url(#clip4_26_15378)">
<path d="M120 37H160V77H120V37Z" fill="#242424"/>
<g clip-path="url(#clip5_26_15378)">
<path d="M119 -4L161 38" stroke="#242424" stroke-width="6"/>
<path d="M106 -2L148 40" stroke="#242424" stroke-width="6"/>
<path d="M91 -2L133 40" stroke="#242424" stroke-width="6"/>
<path d="M132 -6L174 36" stroke="#242424" stroke-width="6"/>
<path d="M147 -6L189 36" stroke="#242424" stroke-width="6"/>
</g>
<g clip-path="url(#clip6_26_15378)">
<path d="M79 36L121 78" stroke="#242424" stroke-width="6"/>
<path d="M66 38L108 80" stroke="#242424" stroke-width="6"/>
<path d="M51 38L93 80" stroke="#242424" stroke-width="6"/>
<path d="M92 34L134 76" stroke="#242424" stroke-width="6"/>
<path d="M107 34L149 76" stroke="#242424" stroke-width="6"/>
</g>
</g>
<g clip-path="url(#clip7_26_15378)">
<path d="M200 37H240V77H200V37Z" fill="#242424"/>
<g clip-path="url(#clip8_26_15378)">
<path d="M199 -4L241 38" stroke="#242424" stroke-width="6"/>
<path d="M186 -2L228 40" stroke="#242424" stroke-width="6"/>
<path d="M171 -2L213 40" stroke="#242424" stroke-width="6"/>
<path d="M212 -6L254 36" stroke="#242424" stroke-width="6"/>
<path d="M227 -6L269 36" stroke="#242424" stroke-width="6"/>
</g>
<g clip-path="url(#clip9_26_15378)">
<path d="M159 36L201 78" stroke="#242424" stroke-width="6"/>
<path d="M146 38L188 80" stroke="#242424" stroke-width="6"/>
<path d="M131 38L173 80" stroke="#242424" stroke-width="6"/>
<path d="M172 34L214 76" stroke="#242424" stroke-width="6"/>
<path d="M187 34L229 76" stroke="#242424" stroke-width="6"/>
</g>
</g>
<g clip-path="url(#clip10_26_15378)">
<path d="M280 37H320V77H280V37Z" fill="#242424"/>
<g clip-path="url(#clip11_26_15378)">
<path d="M279 -4L321 38" stroke="#242424" stroke-width="6"/>
<path d="M266 -2L308 40" stroke="#242424" stroke-width="6"/>
<path d="M251 -2L293 40" stroke="#242424" stroke-width="6"/>
<path d="M292 -6L334 36" stroke="#242424" stroke-width="6"/>
</g>
<g clip-path="url(#clip12_26_15378)">
<path d="M239 36L281 78" stroke="#242424" stroke-width="6"/>
<path d="M226 38L268 80" stroke="#242424" stroke-width="6"/>
<path d="M211 38L253 80" stroke="#242424" stroke-width="6"/>
<path d="M252 34L294 76" stroke="#242424" stroke-width="6"/>
<path d="M267 34L309 76" stroke="#242424" stroke-width="6"/>
</g>
</g>
<g clip-path="url(#clip13_26_15378)">
<path d="M40 117H80V157H40V117Z" fill="#242424"/>
<g clip-path="url(#clip14_26_15378)">
<path d="M39 76L81 118" stroke="#242424" stroke-width="6"/>
<path d="M26 78L68 120" stroke="#242424" stroke-width="6"/>
<path d="M11 78L53 120" stroke="#242424" stroke-width="6"/>
<path d="M52 74L94 116" stroke="#242424" stroke-width="6"/>
<path d="M67 74L109 116" stroke="#242424" stroke-width="6"/>
</g>
<g clip-path="url(#clip15_26_15378)">
<path d="M-1 116L41 158" stroke="#242424" stroke-width="6"/>
<path d="M-14 118L28 160" stroke="#242424" stroke-width="6"/>
<path d="M12 114L54 156" stroke="#242424" stroke-width="6"/>
<path d="M27 114L69 156" stroke="#242424" stroke-width="6"/>
</g>
</g>
<g clip-path="url(#clip16_26_15378)">
<path d="M120 117H160V157H120V117Z" fill="#242424"/>
<g clip-path="url(#clip17_26_15378)">
<path d="M119 76L161 118" stroke="#242424" stroke-width="6"/>
<path d="M106 78L148 120" stroke="#242424" stroke-width="6"/>
<path d="M91 78L133 120" stroke="#242424" stroke-width="6"/>
<path d="M132 74L174 116" stroke="#242424" stroke-width="6"/>
<path d="M147 74L189 116" stroke="#242424" stroke-width="6"/>
</g>
<g clip-path="url(#clip18_26_15378)">
<path d="M79 116L121 158" stroke="#242424" stroke-width="6"/>
<path d="M66 118L108 160" stroke="#242424" stroke-width="6"/>
<path d="M51 118L93 160" stroke="#242424" stroke-width="6"/>
<path d="M92 114L134 156" stroke="#242424" stroke-width="6"/>
<path d="M107 114L149 156" stroke="#242424" stroke-width="6"/>
</g>
</g>
<g clip-path="url(#clip19_26_15378)">
<path d="M200 117H240V157H200V117Z" fill="#242424"/>
<g clip-path="url(#clip20_26_15378)">
<path d="M199 76L241 118" stroke="#242424" stroke-width="6"/>
<path d="M186 78L228 120" stroke="#242424" stroke-width="6"/>
<path d="M171 78L213 120" stroke="#242424" stroke-width="6"/>
<path d="M212 74L254 116" stroke="#242424" stroke-width="6"/>
<path d="M227 74L269 116" stroke="#242424" stroke-width="6"/>
</g>
<g clip-path="url(#clip21_26_15378)">
<path d="M159 116L201 158" stroke="#242424" stroke-width="6"/>
<path d="M146 118L188 160" stroke="#242424" stroke-width="6"/>
<path d="M131 118L173 160" stroke="#242424" stroke-width="6"/>
<path d="M172 114L214 156" stroke="#242424" stroke-width="6"/>
<path d="M187 114L229 156" stroke="#242424" stroke-width="6"/>
</g>
</g>
<g clip-path="url(#clip22_26_15378)">
<path d="M280 117H320V157H280V117Z" fill="#242424"/>
<g clip-path="url(#clip23_26_15378)">
<path d="M279 76L321 118" stroke="#242424" stroke-width="6"/>
<path d="M266 78L308 120" stroke="#242424" stroke-width="6"/>
<path d="M251 78L293 120" stroke="#242424" stroke-width="6"/>
<path d="M292 74L334 116" stroke="#242424" stroke-width="6"/>
</g>
<g clip-path="url(#clip24_26_15378)">
<path d="M239 116L281 158" stroke="#242424" stroke-width="6"/>
<path d="M226 118L268 160" stroke="#242424" stroke-width="6"/>
<path d="M211 118L253 160" stroke="#242424" stroke-width="6"/>
<path d="M252 114L294 156" stroke="#242424" stroke-width="6"/>
<path d="M267 114L309 156" stroke="#242424" stroke-width="6"/>
</g>
</g>
<g clip-path="url(#clip25_26_15378)">
<path d="M40 197H80V237H40V197Z" fill="#242424"/>
<g clip-path="url(#clip26_26_15378)">
<path d="M39 156L81 198" stroke="#242424" stroke-width="6"/>
<path d="M26 158L68 200" stroke="#242424" stroke-width="6"/>
<path d="M11 158L53 200" stroke="#242424" stroke-width="6"/>
<path d="M52 154L94 196" stroke="#242424" stroke-width="6"/>
<path d="M67 154L109 196" stroke="#242424" stroke-width="6"/>
</g>
<g clip-path="url(#clip27_26_15378)">
<path d="M-1 196L41 238" stroke="#242424" stroke-width="6"/>
<path d="M-14 198L28 240" stroke="#242424" stroke-width="6"/>
<path d="M12 194L54 236" stroke="#242424" stroke-width="6"/>
<path d="M27 194L69 236" stroke="#242424" stroke-width="6"/>
</g>
</g>
<g clip-path="url(#clip28_26_15378)">
<path d="M120 197H160V237H120V197Z" fill="#242424"/>
<g clip-path="url(#clip29_26_15378)">
<path d="M119 156L161 198" stroke="#242424" stroke-width="6"/>
<path d="M106 158L148 200" stroke="#242424" stroke-width="6"/>
<path d="M91 158L133 200" stroke="#242424" stroke-width="6"/>
<path d="M132 154L174 196" stroke="#242424" stroke-width="6"/>
<path d="M147 154L189 196" stroke="#242424" stroke-width="6"/>
</g>
<g clip-path="url(#clip30_26_15378)">
<path d="M79 196L121 238" stroke="#242424" stroke-width="6"/>
<path d="M66 198L108 240" stroke="#242424" stroke-width="6"/>
<path d="M51 198L93 240" stroke="#242424" stroke-width="6"/>
<path d="M92 194L134 236" stroke="#242424" stroke-width="6"/>
<path d="M107 194L149 236" stroke="#242424" stroke-width="6"/>
</g>
</g>
<g clip-path="url(#clip31_26_15378)">
<path d="M200 197H240V237H200V197Z" fill="#242424"/>
<g clip-path="url(#clip32_26_15378)">
<path d="M199 156L241 198" stroke="#242424" stroke-width="6"/>
<path d="M186 158L228 200" stroke="#242424" stroke-width="6"/>
<path d="M171 158L213 200" stroke="#242424" stroke-width="6"/>
<path d="M212 154L254 196" stroke="#242424" stroke-width="6"/>
<path d="M227 154L269 196" stroke="#242424" stroke-width="6"/>
</g>
<g clip-path="url(#clip33_26_15378)">
<path d="M159 196L201 238" stroke="#242424" stroke-width="6"/>
<path d="M146 198L188 240" stroke="#242424" stroke-width="6"/>
<path d="M131 198L173 240" stroke="#242424" stroke-width="6"/>
<path d="M172 194L214 236" stroke="#242424" stroke-width="6"/>
<path d="M187 194L229 236" stroke="#242424" stroke-width="6"/>
</g>
</g>
<g clip-path="url(#clip34_26_15378)">
<path d="M280 197H320V237H280V197Z" fill="#242424"/>
<g clip-path="url(#clip35_26_15378)">
<path d="M279 156L321 198" stroke="#242424" stroke-width="6"/>
<path d="M266 158L308 200" stroke="#242424" stroke-width="6"/>
<path d="M251 158L293 200" stroke="#242424" stroke-width="6"/>
<path d="M292 154L334 196" stroke="#242424" stroke-width="6"/>
</g>
<g clip-path="url(#clip36_26_15378)">
<path d="M239 196L281 238" stroke="#242424" stroke-width="6"/>
<path d="M226 198L268 240" stroke="#242424" stroke-width="6"/>
<path d="M211 198L253 240" stroke="#242424" stroke-width="6"/>
<path d="M252 194L294 236" stroke="#242424" stroke-width="6"/>
<path d="M267 194L309 236" stroke="#242424" stroke-width="6"/>
</g>
</g>
<g clip-path="url(#clip37_26_15378)">
<path d="M40 277H80V317H40V277Z" fill="#242424"/>
<g clip-path="url(#clip38_26_15378)">
<path d="M39 236L81 278" stroke="#242424" stroke-width="6"/>
<path d="M26 238L68 280" stroke="#242424" stroke-width="6"/>
<path d="M11 238L53 280" stroke="#242424" stroke-width="6"/>
<path d="M52 234L94 276" stroke="#242424" stroke-width="6"/>
<path d="M67 234L109 276" stroke="#242424" stroke-width="6"/>
</g>
<g clip-path="url(#clip39_26_15378)">
<path d="M-1 276L41 318" stroke="#242424" stroke-width="6"/>
<path d="M-14 278L28 320" stroke="#242424" stroke-width="6"/>
<path d="M12 274L54 316" stroke="#242424" stroke-width="6"/>
<path d="M27 274L69 316" stroke="#242424" stroke-width="6"/>
</g>
</g>
<g clip-path="url(#clip40_26_15378)">
<path d="M120 277H160V317H120V277Z" fill="#242424"/>
<g clip-path="url(#clip41_26_15378)">
<path d="M119 236L161 278" stroke="#242424" stroke-width="6"/>
<path d="M106 238L148 280" stroke="#242424" stroke-width="6"/>
<path d="M91 238L133 280" stroke="#242424" stroke-width="6"/>
<path d="M132 234L174 276" stroke="#242424" stroke-width="6"/>
<path d="M147 234L189 276" stroke="#242424" stroke-width="6"/>
</g>
<g clip-path="url(#clip42_26_15378)">
<path d="M79 276L121 318" stroke="#242424" stroke-width="6"/>
<path d="M66 278L108 320" stroke="#242424" stroke-width="6"/>
<path d="M51 278L93 320" stroke="#242424" stroke-width="6"/>
<path d="M92 274L134 316" stroke="#242424" stroke-width="6"/>
<path d="M107 274L149 316" stroke="#242424" stroke-width="6"/>
</g>
</g>
<g clip-path="url(#clip43_26_15378)">
<path d="M200 277H240V317H200V277Z" fill="#242424"/>
<g clip-path="url(#clip44_26_15378)">
<path d="M199 236L241 278" stroke="#242424" stroke-width="6"/>
<path d="M186 238L228 280" stroke="#242424" stroke-width="6"/>
<path d="M171 238L213 280" stroke="#242424" stroke-width="6"/>
<path d="M212 234L254 276" stroke="#242424" stroke-width="6"/>
<path d="M227 234L269 276" stroke="#242424" stroke-width="6"/>
</g>
<g clip-path="url(#clip45_26_15378)">
<path d="M159 276L201 318" stroke="#242424" stroke-width="6"/>
<path d="M146 278L188 320" stroke="#242424" stroke-width="6"/>
<path d="M131 278L173 320" stroke="#242424" stroke-width="6"/>
<path d="M172 274L214 316" stroke="#242424" stroke-width="6"/>
<path d="M187 274L229 316" stroke="#242424" stroke-width="6"/>
</g>
</g>
<g clip-path="url(#clip46_26_15378)">
<path d="M280 277H320V317H280V277Z" fill="#242424"/>
<g clip-path="url(#clip47_26_15378)">
<path d="M279 236L321 278" stroke="#242424" stroke-width="6"/>
<path d="M266 238L308 280" stroke="#242424" stroke-width="6"/>
<path d="M251 238L293 280" stroke="#242424" stroke-width="6"/>
<path d="M292 234L334 276" stroke="#242424" stroke-width="6"/>
</g>
<g clip-path="url(#clip48_26_15378)">
<path d="M239 276L281 318" stroke="#242424" stroke-width="6"/>
<path d="M226 278L268 320" stroke="#242424" stroke-width="6"/>
<path d="M211 278L253 320" stroke="#242424" stroke-width="6"/>
<path d="M252 274L294 316" stroke="#242424" stroke-width="6"/>
<path d="M267 274L309 316" stroke="#242424" stroke-width="6"/>
</g>
</g>
</g>
<g filter="url(#filter1_d_26_15378)">
<path d="M10 22C10 15.3726 15.3726 10 22 10H298C304.627 10 310 15.3726 310 22V122C310 126.418 306.418 130 302 130H18C13.5817 130 10 126.418 10 122V22Z" fill="#242424"/>
</g>
<path d="M201.612 102.229L166.615 93.9852L102.493 136.948V177.137L126.607 195.765L171.078 201.234L208.032 177.137L220.325 140.357L214.844 113.564L201.612 102.229Z" fill="#BA2526"/>
<g style="mix-blend-mode:multiply" opacity="0.4">
<path d="M201.612 102.229L166.615 93.9852L102.493 136.948V177.137L126.607 195.765L171.078 201.234L208.032 177.137L220.325 140.357L214.844 113.564L201.612 102.229Z" fill="#242424"/>
</g>
<g filter="url(#filter2_d_26_15378)">
<path d="M160.352 230.484C156.594 233.338 151.818 233.021 147.903 230.484L128.252 198.381L153.384 189.582L178.124 198.381L160.352 230.484Z" fill="#BA2526"/>
</g>
<g filter="url(#filter3_d_26_15378)">
<path d="M242.716 163.027C240.775 164.105 219.829 171.139 209.598 174.521L213.591 119.985L248.197 139.485C253.677 150.582 245.143 161.68 242.716 163.027Z" fill="#BA2526"/>
</g>
<g filter="url(#filter4_d_26_15378)">
<path d="M102.728 89.5464C103.041 83.8391 109.539 75.3575 112.906 75.516C116.226 76.1502 136.316 84.2883 145.946 88.2781L140.622 98.9L105.86 118.479C104.711 110.737 102.477 94.1122 102.728 89.5464Z" fill="#BA2526"/>
</g>
<g filter="url(#filter5_d_26_15378)">
<path d="M159.569 63.2295C157.94 64.688 144.798 88.2517 138.43 99.8512L181.178 104.924L193.078 96.6012C185.875 84.6318 172.566 66.1624 169.356 63.2295C167.774 61.7849 161.605 61.4064 159.569 63.2295Z" fill="#BA2526"/>
</g>
<path d="M180.991 96.7104C178.585 91.2298 165.353 93.0567 162.346 96.7104L164.15 101.582H180.39L180.991 96.7104Z" fill="#BA2526"/>
<path d="M193.157 116.815L209.677 106.986L217.349 124.107L193.157 116.815Z" fill="#BA2526"/>
<path d="M191.591 115.467L196.445 102.943L185.562 98.8208L179.769 102.943L191.591 115.467Z" fill="#BA2526"/>
<g opacity="0.22">
<g style="mix-blend-mode:multiply">
<path d="M193.157 116.815L209.677 106.986L217.349 124.107L193.157 116.815Z" fill="#242424"/>
</g>
<g style="mix-blend-mode:multiply">
<path d="M191.591 115.467L196.445 102.943L185.562 98.8208L179.769 102.943L191.591 115.467Z" fill="#242424"/>
</g>
</g>
<g filter="url(#filter6_d_26_15378)">
<path d="M224.474 88.278C224.474 86.6927 220.246 83.4427 218.367 83.839L178.829 101.199C185.249 101.199 210.694 111.266 217.349 124.107L220.951 125.137C222.125 113.379 224.474 89.5463 224.474 88.278Z" fill="#BA2526"/>
</g>
<path d="M122.614 179.119L117.839 191.326L133.497 198.222L138.978 194.18L122.614 179.119Z" fill="#BA2526"/>
<path d="M122.38 177.93L98.1869 158.826V164.93L108.6 187.68L122.38 177.93Z" fill="#BA2526"/>
<g opacity="0.22">
<g style="mix-blend-mode:multiply">
<path d="M122.614 179.119L117.839 191.326L133.497 198.222L138.978 194.18L122.614 179.119Z" fill="#242424"/>
</g>
<g style="mix-blend-mode:multiply">
<path d="M122.38 177.93L98.1869 158.826V164.93L108.6 187.68L122.38 177.93Z" fill="#242424"/>
</g>
</g>
<g filter="url(#filter7_d_26_15378)">
<path d="M98.1868 210.43C94.5853 210.43 86.6777 204.881 86.2863 200.125L98.1868 158.826C105.265 180.387 127.86 193.546 138.273 197.43L98.1868 210.43Z" fill="#BA2526"/>
</g>
<g filter="url(#filter8_d_26_15378)">
<path d="M73.0232 127.822C74.7076 126.43 99.7969 117.099 112.131 112.607L117.29 148.68L106.329 163.82C88.9483 156.369 73.7856 146.037 71.4445 142.356C70.2914 140.544 70.9177 129.562 73.0232 127.822Z" fill="#BA2526"/>
</g>
<g filter="url(#filter9_d_26_15378)">
<path d="M108.522 102.705C109.853 99.6133 112.045 96.6011 116.742 93.4304L160.9 99.6926C158.368 104.475 147.637 114.912 141.248 122.205C134.859 129.497 120.266 141.255 113.767 146.223C111.575 132.747 107.457 105.178 108.522 102.705Z" fill="#BA2526"/>
</g>
<g filter="url(#filter10_d_26_15378)">
<path d="M232.069 126.168C230.503 125.217 196.445 116.577 191.278 116.894L192.374 168.576C206.075 162.103 233.509 148.728 233.634 147.015C233.791 144.875 233.634 127.119 232.069 126.168Z" fill="#BA2526"/>
</g>
<path d="M197.385 148.284C198.011 142.339 196.602 120.223 192.609 116.339L186.815 118.875L175.462 144.083C182.561 147.465 196.883 153.04 197.385 148.284Z" fill="#BA2526"/>
<g style="mix-blend-mode:multiply" opacity="0.22">
<path d="M197.385 148.284C198.011 142.339 196.602 120.223 192.609 116.339L186.815 118.875L175.462 144.083C182.561 147.465 196.883 153.04 197.385 148.284Z" fill="#242424"/>
</g>
<g filter="url(#filter11_d_26_15378)">
<path d="M162.383 96.8103L162.346 96.7104C165.333 93.081 178.41 91.2542 180.942 96.6022L180.943 96.6013L194.331 117.052C192.661 120.038 185.39 125.962 169.669 125.772C153.947 125.582 144.368 118.499 142.933 113.77L162.383 96.8103Z" fill="#BA2526"/>
<g style="mix-blend-mode:multiply" opacity="0.22">
<path fill-rule="evenodd" clip-rule="evenodd" d="M162.383 96.8103L162.622 96.6013C166.928 98.8999 174.913 101.357 180.942 96.6022C178.41 91.2542 165.333 93.081 162.346 96.7104L162.383 96.8103Z" fill="#242424"/>
</g>
</g>
<g filter="url(#filter12_d_26_15378)">
<path d="M196.21 186.332L181.099 179.436L190.573 155.735L210.225 161.521L196.21 186.332Z" fill="#BA2526"/>
<path d="M182.039 176.582L190.338 190.771L167.868 203.137L182.039 176.582Z" fill="#BA2526"/>
</g>
<g opacity="0.22">
<g style="mix-blend-mode:multiply">
<path d="M196.21 186.332L181.099 179.436L190.573 155.735L210.225 161.521L196.21 186.332Z" fill="#242424"/>
</g>
<g style="mix-blend-mode:multiply">
<path d="M182.039 176.582L190.338 190.771L167.868 203.137L182.039 176.582Z" fill="#242424"/>
</g>
</g>
<g filter="url(#filter13_d_26_15378)">
<path d="M208.502 214.472C215.58 213.584 220.272 206.175 221.734 202.582L210.616 159.777L208.267 160.887C200.47 179.101 178.576 196.708 167.868 203.533L208.502 214.472Z" fill="#BA2526"/>
</g>
<g filter="url(#filter14_d_26_15378)">
<path d="M170.138 208.923C164.423 207.576 158.629 211.936 150.878 214.076L124.65 183.32C127.599 182.607 137.24 177.343 152.209 172.777C167.179 168.211 180.473 169.184 185.249 170.241L170.138 208.923Z" fill="#BA2526"/>
</g>
<g filter="url(#filter15_d_26_15378)">
<path d="M145.006 141.784C142.736 141.546 134.202 144.637 129.348 148.046C129.348 151.296 143.362 169.052 145.006 169.765C146.65 170.478 161.918 158.668 160.508 155.655C159.099 152.643 147.277 142.021 145.006 141.784Z" fill="#BA2526"/>
</g>
<g style="mix-blend-mode:multiply" opacity="0.22">
<path d="M145.006 141.784C142.736 141.546 134.202 144.637 129.348 148.046C129.348 151.296 143.362 169.052 145.006 169.765C146.65 170.478 161.918 158.668 160.508 155.655C159.099 152.643 147.277 142.021 145.006 141.784Z" fill="#242424"/>
</g>
<g filter="url(#filter16_d_26_15378)">
<path d="M126.921 145.826C125.824 143.131 133.889 130.131 142.423 113.882C144.867 109.284 189.79 120.223 190.182 123.077C190.573 125.93 179.612 153.278 169.982 152.326C160.352 151.375 128.017 148.521 126.921 145.826Z" fill="#BA2526"/>
</g>
<path d="M185.093 171.985C199.42 166.832 201.856 148.472 196.758 147.729C186.424 146.223 191.904 162.79 185.093 171.985Z" fill="#BA2526"/>
<g filter="url(#filter17_d_26_15378)">
<path d="M150.174 173.887C152.757 156.131 163.718 126.01 180.16 125.772C192.369 125.595 197.473 140.613 198.79 149.764C200.522 154.767 196.854 167.473 185.515 171.827L185.249 172.223L150.174 173.887Z" fill="#BA2526"/>
<g style="mix-blend-mode:multiply" opacity="0.22">
<path d="M185.093 171.985C199.42 166.832 201.856 148.472 196.758 147.729C186.424 146.223 191.904 162.79 185.093 171.985Z" fill="#242424"/>
</g>
</g>
<g filter="url(#filter18_d_26_15378)">
<path d="M112.322 186.577C103.632 172.626 100.578 173.736 98.4643 173.736C96.1154 171.992 106.409 149.689 112.424 138.119C134.972 140.719 147.606 162.237 152.121 174.048C129.322 181.404 114.775 187.608 112.322 186.577Z" fill="#BA2526"/>
</g>
</g>
<defs>
<filter id="filter0_d_26_15378" x="-4" y="-2" width="328" height="308" filterUnits="userSpaceOnUse" color-interpolation-filters="sRGB">
<feFlood flood-opacity="0" result="BackgroundImageFix"/>
<feColorMatrix in="SourceAlpha" type="matrix" values="0 0 0 0 0 0 0 0 0 0 0 0 0 0 0 0 0 0 127 0" result="hardAlpha"/>
<feOffset dy="2"/>
<feGaussianBlur stdDeviation="2"/>
<feComposite in2="hardAlpha" operator="out"/>
<feColorMatrix type="matrix" values="0 0 0 0 0 0 0 0 0 0 0 0 0 0 0 0 0 0 0.25 0"/>
<feBlend mode="normal" in2="BackgroundImageFix" result="effect1_dropShadow_26_15378"/>
<feBlend mode="normal" in="SourceGraphic" in2="effect1_dropShadow_26_15378" result="shape"/>
</filter>
<filter id="filter1_d_26_15378" x="6" y="8" width="308" height="128" filterUnits="userSpaceOnUse" color-interpolation-filters="sRGB">
<feFlood flood-opacity="0" result="BackgroundImageFix"/>
<feColorMatrix in="SourceAlpha" type="matrix" values="0 0 0 0 0 0 0 0 0 0 0 0 0 0 0 0 0 0 127 0" result="hardAlpha"/>
<feOffset dy="2"/>
<feGaussianBlur stdDeviation="2"/>
<feComposite in2="hardAlpha" operator="out"/>
<feColorMatrix type="matrix" values="0 0 0 0 0 0 0 0 0 0 0 0 0 0 0 0 0 0 0.25 0"/>
<feBlend mode="normal" in2="BackgroundImageFix" result="effect1_dropShadow_26_15378"/>
<feBlend mode="normal" in="SourceGraphic" in2="effect1_dropShadow_26_15378" result="shape"/>
</filter>
<filter id="filter2_d_26_15378" x="128.252" y="189.582" width="49.8729" height="45.9252" filterUnits="userSpaceOnUse" color-interpolation-filters="sRGB">
<feFlood flood-opacity="0" result="BackgroundImageFix"/>
<feColorMatrix in="SourceAlpha" type="matrix" values="0 0 0 0 0 0 0 0 0 0 0 0 0 0 0 0 0 0 127 0" result="hardAlpha"/>
<feOffset dy="3"/>
<feComposite in2="hardAlpha" operator="out"/>
<feColorMatrix type="matrix" values="0 0 0 0 0 0 0 0 0 0 0 0 0 0 0 0 0 0 0.2 0"/>
<feBlend mode="multiply" in2="BackgroundImageFix" result="effect1_dropShadow_26_15378"/>
<feBlend mode="normal" in="SourceGraphic" in2="effect1_dropShadow_26_15378" result="shape"/>
</filter>
<filter id="filter3_d_26_15378" x="209.598" y="119.985" width="40.4017" height="57.5362" filterUnits="userSpaceOnUse" color-interpolation-filters="sRGB">
<feFlood flood-opacity="0" result="BackgroundImageFix"/>
<feColorMatrix in="SourceAlpha" type="matrix" values="0 0 0 0 0 0 0 0 0 0 0 0 0 0 0 0 0 0 127 0" result="hardAlpha"/>
<feOffset dy="3"/>
<feComposite in2="hardAlpha" operator="out"/>
<feColorMatrix type="matrix" values="0 0 0 0 0 0 0 0 0 0 0 0 0 0 0 0 0 0 0.2 0"/>
<feBlend mode="multiply" in2="BackgroundImageFix" result="effect1_dropShadow_26_15378"/>
<feBlend mode="normal" in="SourceGraphic" in2="effect1_dropShadow_26_15378" result="shape"/>
</filter>
<filter id="filter4_d_26_15378" x="102.708" y="75.5138" width="43.2373" height="45.9653" filterUnits="userSpaceOnUse" color-interpolation-filters="sRGB">
<feFlood flood-opacity="0" result="BackgroundImageFix"/>
<feColorMatrix in="SourceAlpha" type="matrix" values="0 0 0 0 0 0 0 0 0 0 0 0 0 0 0 0 0 0 127 0" result="hardAlpha"/>
<feOffset dy="3"/>
<feComposite in2="hardAlpha" operator="out"/>
<feColorMatrix type="matrix" values="0 0 0 0 0 0 0 0 0 0 0 0 0 0 0 0 0 0 0.2 0"/>
<feBlend mode="multiply" in2="BackgroundImageFix" result="effect1_dropShadow_26_15378"/>
<feBlend mode="normal" in="SourceGraphic" in2="effect1_dropShadow_26_15378" result="shape"/>
</filter>
<filter id="filter5_d_26_15378" x="138.43" y="62" width="54.6488" height="45.9243" filterUnits="userSpaceOnUse" color-interpolation-filters="sRGB">
<feFlood flood-opacity="0" result="BackgroundImageFix"/>
<feColorMatrix in="SourceAlpha" type="matrix" values="0 0 0 0 0 0 0 0 0 0 0 0 0 0 0 0 0 0 127 0" result="hardAlpha"/>
<feOffset dy="3"/>
<feComposite in2="hardAlpha" operator="out"/>
<feColorMatrix type="matrix" values="0 0 0 0 0 0 0 0 0 0 0 0 0 0 0 0 0 0 0.2 0"/>
<feBlend mode="multiply" in2="BackgroundImageFix" result="effect1_dropShadow_26_15378"/>
<feBlend mode="normal" in="SourceGraphic" in2="effect1_dropShadow_26_15378" result="shape"/>
</filter>
<filter id="filter6_d_26_15378" x="178.829" y="83.8058" width="45.645" height="44.3317" filterUnits="userSpaceOnUse" color-interpolation-filters="sRGB">
<feFlood flood-opacity="0" result="BackgroundImageFix"/>
<feColorMatrix in="SourceAlpha" type="matrix" values="0 0 0 0 0 0 0 0 0 0 0 0 0 0 0 0 0 0 127 0" result="hardAlpha"/>
<feOffset dy="3"/>
<feComposite in2="hardAlpha" operator="out"/>
<feColorMatrix type="matrix" values="0 0 0 0 0 0 0 0 0 0 0 0 0 0 0 0 0 0 0.1 0"/>
<feBlend mode="multiply" in2="BackgroundImageFix" result="effect1_dropShadow_26_15378"/>
<feBlend mode="normal" in="SourceGraphic" in2="effect1_dropShadow_26_15378" result="shape"/>
</filter>
<filter id="filter7_d_26_15378" x="86.2863" y="158.826" width="51.9868" height="54.6032" filterUnits="userSpaceOnUse" color-interpolation-filters="sRGB">
<feFlood flood-opacity="0" result="BackgroundImageFix"/>
<feColorMatrix in="SourceAlpha" type="matrix" values="0 0 0 0 0 0 0 0 0 0 0 0 0 0 0 0 0 0 127 0" result="hardAlpha"/>
<feOffset dy="3"/>
<feComposite in2="hardAlpha" operator="out"/>
<feColorMatrix type="matrix" values="0 0 0 0 0 0 0 0 0 0 0 0 0 0 0 0 0 0 0.2 0"/>
<feBlend mode="multiply" in2="BackgroundImageFix" result="effect1_dropShadow_26_15378"/>
<feBlend mode="normal" in="SourceGraphic" in2="effect1_dropShadow_26_15378" result="shape"/>
</filter>
<filter id="filter8_d_26_15378" x="70.8734" y="112.607" width="46.417" height="54.213" filterUnits="userSpaceOnUse" color-interpolation-filters="sRGB">
<feFlood flood-opacity="0" result="BackgroundImageFix"/>
<feColorMatrix in="SourceAlpha" type="matrix" values="0 0 0 0 0 0 0 0 0 0 0 0 0 0 0 0 0 0 127 0" result="hardAlpha"/>
<feOffset dy="3"/>
<feComposite in2="hardAlpha" operator="out"/>
<feColorMatrix type="matrix" values="0 0 0 0 0 0 0 0 0 0 0 0 0 0 0 0 0 0 0.2 0"/>
<feBlend mode="multiply" in2="BackgroundImageFix" result="effect1_dropShadow_26_15378"/>
<feBlend mode="normal" in="SourceGraphic" in2="effect1_dropShadow_26_15378" result="shape"/>
</filter>
<filter id="filter9_d_26_15378" x="108.349" y="93.4304" width="52.551" height="55.7923" filterUnits="userSpaceOnUse" color-interpolation-filters="sRGB">
<feFlood flood-opacity="0" result="BackgroundImageFix"/>
<feColorMatrix in="SourceAlpha" type="matrix" values="0 0 0 0 0 0 0 0 0 0 0 0 0 0 0 0 0 0 127 0" result="hardAlpha"/>
<feOffset dy="3"/>
<feComposite in2="hardAlpha" operator="out"/>
<feColorMatrix type="matrix" values="0 0 0 0 0 0 0 0 0 0 0 0 0 0 0 0 0 0 0.2 0"/>
<feBlend mode="multiply" in2="BackgroundImageFix" result="effect1_dropShadow_26_15378"/>
<feBlend mode="normal" in="SourceGraphic" in2="effect1_dropShadow_26_15378" result="shape"/>
</filter>
<filter id="filter10_d_26_15378" x="191.278" y="116.885" width="42.4045" height="54.691" filterUnits="userSpaceOnUse" color-interpolation-filters="sRGB">
<feFlood flood-opacity="0" result="BackgroundImageFix"/>
<feColorMatrix in="SourceAlpha" type="matrix" values="0 0 0 0 0 0 0 0 0 0 0 0 0 0 0 0 0 0 127 0" result="hardAlpha"/>
<feOffset dy="3"/>
<feComposite in2="hardAlpha" operator="out"/>
<feColorMatrix type="matrix" values="0 0 0 0 0 0 0 0 0 0 0 0 0 0 0 0 0 0 0.2 0"/>
<feBlend mode="multiply" in2="BackgroundImageFix" result="effect1_dropShadow_26_15378"/>
<feBlend mode="normal" in="SourceGraphic" in2="effect1_dropShadow_26_15378" result="shape"/>
</filter>
<filter id="filter11_d_26_15378" x="140.933" y="93.2515" width="53.3979" height="32.5248" filterUnits="userSpaceOnUse" color-interpolation-filters="sRGB">
<feFlood flood-opacity="0" result="BackgroundImageFix"/>
<feColorMatrix in="SourceAlpha" type="matrix" values="0 0 0 0 0 0 0 0 0 0 0 0 0 0 0 0 0 0 127 0" result="hardAlpha"/>
<feOffset dx="-2"/>
<feComposite in2="hardAlpha" operator="out"/>
<feColorMatrix type="matrix" values="0 0 0 0 0 0 0 0 0 0 0 0 0 0 0 0 0 0 0.2 0"/>
<feBlend mode="normal" in2="BackgroundImageFix" result="effect1_dropShadow_26_15378"/>
<feBlend mode="normal" in="SourceGraphic" in2="effect1_dropShadow_26_15378" result="shape"/>
</filter>
<filter id="filter12_d_26_15378" x="157.868" y="147.735" width="62.3567" height="67.4021" filterUnits="userSpaceOnUse" color-interpolation-filters="sRGB">
<feFlood flood-opacity="0" result="BackgroundImageFix"/>
<feColorMatrix in="SourceAlpha" type="matrix" values="0 0 0 0 0 0 0 0 0 0 0 0 0 0 0 0 0 0 127 0" result="hardAlpha"/>
<feOffset dy="2"/>
<feGaussianBlur stdDeviation="5"/>
<feComposite in2="hardAlpha" operator="out"/>
<feColorMatrix type="matrix" values="0 0 0 0 0 0 0 0 0 0 0 0 0 0 0 0 0 0 0.25 0"/>
<feBlend mode="normal" in2="BackgroundImageFix" result="effect1_dropShadow_26_15378"/>
<feBlend mode="normal" in="SourceGraphic" in2="effect1_dropShadow_26_15378" result="shape"/>
</filter>
<filter id="filter13_d_26_15378" x="167.868" y="159.777" width="53.8658" height="57.6947" filterUnits="userSpaceOnUse" color-interpolation-filters="sRGB">
<feFlood flood-opacity="0" result="BackgroundImageFix"/>
<feColorMatrix in="SourceAlpha" type="matrix" values="0 0 0 0 0 0 0 0 0 0 0 0 0 0 0 0 0 0 127 0" result="hardAlpha"/>
<feOffset dy="3"/>
<feComposite in2="hardAlpha" operator="out"/>
<feColorMatrix type="matrix" values="0 0 0 0 0 0 0 0 0 0 0 0 0 0 0 0 0 0 0.2 0"/>
<feBlend mode="multiply" in2="BackgroundImageFix" result="effect1_dropShadow_26_15378"/>
<feBlend mode="normal" in="SourceGraphic" in2="effect1_dropShadow_26_15378" result="shape"/>
</filter>
<filter id="filter14_d_26_15378" x="124.65" y="169.358" width="60.599" height="47.7181" filterUnits="userSpaceOnUse" color-interpolation-filters="sRGB">
<feFlood flood-opacity="0" result="BackgroundImageFix"/>
<feColorMatrix in="SourceAlpha" type="matrix" values="0 0 0 0 0 0 0 0 0 0 0 0 0 0 0 0 0 0 127 0" result="hardAlpha"/>
<feOffset dy="3"/>
<feComposite in2="hardAlpha" operator="out"/>
<feColorMatrix type="matrix" values="0 0 0 0 0 0 0 0 0 0 0 0 0 0 0 0 0 0 0.2 0"/>
<feBlend mode="multiply" in2="BackgroundImageFix" result="effect1_dropShadow_26_15378"/>
<feBlend mode="normal" in="SourceGraphic" in2="effect1_dropShadow_26_15378" result="shape"/>
</filter>
<filter id="filter15_d_26_15378" x="119.348" y="133.771" width="51.2524" height="48.0253" filterUnits="userSpaceOnUse" color-interpolation-filters="sRGB">
<feFlood flood-opacity="0" result="BackgroundImageFix"/>
<feColorMatrix in="SourceAlpha" type="matrix" values="0 0 0 0 0 0 0 0 0 0 0 0 0 0 0 0 0 0 127 0" result="hardAlpha"/>
<feOffset dy="2"/>
<feGaussianBlur stdDeviation="5"/>
<feComposite in2="hardAlpha" operator="out"/>
<feColorMatrix type="matrix" values="0 0 0 0 0 0 0 0 0 0 0 0 0 0 0 0 0 0 0.25 0"/>
<feBlend mode="normal" in2="BackgroundImageFix" result="effect1_dropShadow_26_15378"/>
<feBlend mode="normal" in="SourceGraphic" in2="effect1_dropShadow_26_15378" result="shape"/>
</filter>
<filter id="filter16_d_26_15378" x="125.82" y="110.768" width="64.3716" height="41.5828" filterUnits="userSpaceOnUse" color-interpolation-filters="sRGB">
<feFlood flood-opacity="0" result="BackgroundImageFix"/>
<feColorMatrix in="SourceAlpha" type="matrix" values="0 0 0 0 0 0 0 0 0 0 0 0 0 0 0 0 0 0 127 0" result="hardAlpha"/>
<feOffset dx="-1" dy="-2"/>
<feComposite in2="hardAlpha" operator="out"/>
<feColorMatrix type="matrix" values="0 0 0 0 0 0 0 0 0 0 0 0 0 0 0 0 0 0 0.2 0"/>
<feBlend mode="multiply" in2="BackgroundImageFix" result="effect1_dropShadow_26_15378"/>
<feBlend mode="normal" in="SourceGraphic" in2="effect1_dropShadow_26_15378" result="shape"/>
</filter>
<filter id="filter17_d_26_15378" x="148.174" y="125.77" width="51.0239" height="51.117" filterUnits="userSpaceOnUse" color-interpolation-filters="sRGB">
<feFlood flood-opacity="0" result="BackgroundImageFix"/>
<feColorMatrix in="SourceAlpha" type="matrix" values="0 0 0 0 0 0 0 0 0 0 0 0 0 0 0 0 0 0 127 0" result="hardAlpha"/>
<feOffset dx="-2" dy="3"/>
<feComposite in2="hardAlpha" operator="out"/>
<feColorMatrix type="matrix" values="0 0 0 0 0 0 0 0 0 0 0 0 0 0 0 0 0 0 0.2 0"/>
<feBlend mode="normal" in2="BackgroundImageFix" result="effect1_dropShadow_26_15378"/>
<feBlend mode="normal" in="SourceGraphic" in2="effect1_dropShadow_26_15378" result="shape"/>
</filter>
<filter id="filter18_d_26_15378" x="98.1219" y="138.119" width="53.9988" height="51.5704" filterUnits="userSpaceOnUse" color-interpolation-filters="sRGB">
<feFlood flood-opacity="0" result="BackgroundImageFix"/>
<feColorMatrix in="SourceAlpha" type="matrix" values="0 0 0 0 0 0 0 0 0 0 0 0 0 0 0 0 0 0 127 0" result="hardAlpha"/>
<feOffset dy="3"/>
<feComposite in2="hardAlpha" operator="out"/>
<feColorMatrix type="matrix" values="0 0 0 0 0 0 0 0 0 0 0 0 0 0 0 0 0 0 0.2 0"/>
<feBlend mode="multiply" in2="BackgroundImageFix" result="effect1_dropShadow_26_15378"/>
<feBlend mode="normal" in="SourceGraphic" in2="effect1_dropShadow_26_15378" result="shape"/>
</filter>
<clipPath id="clip0_26_15378">
<rect x="20" y="24" width="280" height="266" rx="12" fill="white"/>
</clipPath>
<clipPath id="clip1_26_15378">
<rect width="80" height="80" fill="white" transform="translate(0 -3)"/>
</clipPath>
<clipPath id="clip2_26_15378">
<rect width="40" height="40" fill="white" transform="translate(40 -3)"/>
</clipPath>
<clipPath id="clip3_26_15378">
<rect width="40" height="40" fill="white" transform="translate(0 37)"/>
</clipPath>
<clipPath id="clip4_26_15378">
<rect width="80" height="80" fill="white" transform="translate(80 -3)"/>
</clipPath>
<clipPath id="clip5_26_15378">
<rect width="40" height="40" fill="white" transform="translate(120 -3)"/>
</clipPath>
<clipPath id="clip6_26_15378">
<rect width="40" height="40" fill="white" transform="translate(80 37)"/>
</clipPath>
<clipPath id="clip7_26_15378">
<rect width="80" height="80" fill="white" transform="translate(160 -3)"/>
</clipPath>
<clipPath id="clip8_26_15378">
<rect width="40" height="40" fill="white" transform="translate(200 -3)"/>
</clipPath>
<clipPath id="clip9_26_15378">
<rect width="40" height="40" fill="white" transform="translate(160 37)"/>
</clipPath>
<clipPath id="clip10_26_15378">
<rect width="80" height="80" fill="white" transform="translate(240 -3)"/>
</clipPath>
<clipPath id="clip11_26_15378">
<rect width="40" height="40" fill="white" transform="translate(280 -3)"/>
</clipPath>
<clipPath id="clip12_26_15378">
<rect width="40" height="40" fill="white" transform="translate(240 37)"/>
</clipPath>
<clipPath id="clip13_26_15378">
<rect width="80" height="80" fill="white" transform="translate(0 77)"/>
</clipPath>
<clipPath id="clip14_26_15378">
<rect width="40" height="40" fill="white" transform="translate(40 77)"/>
</clipPath>
<clipPath id="clip15_26_15378">
<rect width="40" height="40" fill="white" transform="translate(0 117)"/>
</clipPath>
<clipPath id="clip16_26_15378">
<rect width="80" height="80" fill="white" transform="translate(80 77)"/>
</clipPath>
<clipPath id="clip17_26_15378">
<rect width="40" height="40" fill="white" transform="translate(120 77)"/>
</clipPath>
<clipPath id="clip18_26_15378">
<rect width="40" height="40" fill="white" transform="translate(80 117)"/>
</clipPath>
<clipPath id="clip19_26_15378">
<rect width="80" height="80" fill="white" transform="translate(160 77)"/>
</clipPath>
<clipPath id="clip20_26_15378">
<rect width="40" height="40" fill="white" transform="translate(200 77)"/>
</clipPath>
<clipPath id="clip21_26_15378">
<rect width="40" height="40" fill="white" transform="translate(160 117)"/>
</clipPath>
<clipPath id="clip22_26_15378">
<rect width="80" height="80" fill="white" transform="translate(240 77)"/>
</clipPath>
<clipPath id="clip23_26_15378">
<rect width="40" height="40" fill="white" transform="translate(280 77)"/>
</clipPath>
<clipPath id="clip24_26_15378">
<rect width="40" height="40" fill="white" transform="translate(240 117)"/>
</clipPath>
<clipPath id="clip25_26_15378">
<rect width="80" height="80" fill="white" transform="translate(0 157)"/>
</clipPath>
<clipPath id="clip26_26_15378">
<rect width="40" height="40" fill="white" transform="translate(40 157)"/>
</clipPath>
<clipPath id="clip27_26_15378">
<rect width="40" height="40" fill="white" transform="translate(0 197)"/>
</clipPath>
<clipPath id="clip28_26_15378">
<rect width="80" height="80" fill="white" transform="translate(80 157)"/>
</clipPath>
<clipPath id="clip29_26_15378">
<rect width="40" height="40" fill="white" transform="translate(120 157)"/>
</clipPath>
<clipPath id="clip30_26_15378">
<rect width="40" height="40" fill="white" transform="translate(80 197)"/>
</clipPath>
<clipPath id="clip31_26_15378">
<rect width="80" height="80" fill="white" transform="translate(160 157)"/>
</clipPath>
<clipPath id="clip32_26_15378">
<rect width="40" height="40" fill="white" transform="translate(200 157)"/>
</clipPath>
<clipPath id="clip33_26_15378">
<rect width="40" height="40" fill="white" transform="translate(160 197)"/>
</clipPath>
<clipPath id="clip34_26_15378">
<rect width="80" height="80" fill="white" transform="translate(240 157)"/>
</clipPath>
<clipPath id="clip35_26_15378">
<rect width="40" height="40" fill="white" transform="translate(280 157)"/>
</clipPath>
<clipPath id="clip36_26_15378">
<rect width="40" height="40" fill="white" transform="translate(240 197)"/>
</clipPath>
<clipPath id="clip37_26_15378">
<rect width="80" height="80" fill="white" transform="translate(0 237)"/>
</clipPath>
<clipPath id="clip38_26_15378">
<rect width="40" height="40" fill="white" transform="translate(40 237)"/>
</clipPath>
<clipPath id="clip39_26_15378">
<rect width="40" height="40" fill="white" transform="translate(0 277)"/>
</clipPath>
<clipPath id="clip40_26_15378">
<rect width="80" height="80" fill="white" transform="translate(80 237)"/>
</clipPath>
<clipPath id="clip41_26_15378">
<rect width="40" height="40" fill="white" transform="translate(120 237)"/>
</clipPath>
<clipPath id="clip42_26_15378">
<rect width="40" height="40" fill="white" transform="translate(80 277)"/>
</clipPath>
<clipPath id="clip43_26_15378">
<rect width="80" height="80" fill="white" transform="translate(160 237)"/>
</clipPath>
<clipPath id="clip44_26_15378">
<rect width="40" height="40" fill="white" transform="translate(200 237)"/>
</clipPath>
<clipPath id="clip45_26_15378">
<rect width="40" height="40" fill="white" transform="translate(160 277)"/>
</clipPath>
<clipPath id="clip46_26_15378">
<rect width="80" height="80" fill="white" transform="translate(240 237)"/>
</clipPath>
<clipPath id="clip47_26_15378">
<rect width="40" height="40" fill="white" transform="translate(280 237)"/>
</clipPath>
<clipPath id="clip48_26_15378">
<rect width="40" height="40" fill="white" transform="translate(240 277)"/>
</clipPath>
</defs>
</svg>
