<svg width="320" height="300" viewBox="0 0 320 300" fill="none" xmlns="http://www.w3.org/2000/svg">
<g filter="url(#filter0_d_26_15398)">
<g clip-path="url(#clip0_26_15398)">
<rect x="20" y="24" width="280" height="266" rx="12" fill="#1B4F35"/>
<circle cx="-5" cy="-8" r="33" fill="#BA2526"/>
<circle cx="61" cy="58" r="33" fill="#477D49"/>
<path d="M61 -41C42.7746 -41 28 -26.2254 28 -8C28 10.2254 42.7746 25 61 25L61 -41Z" fill="#E69232"/>
<path d="M61 25C79.2254 25 94 10.2254 94 -8C94 -26.2254 79.2254 -41 61 -41L61 25Z" fill="#8C0B04"/>
<path d="M-38 25C-38 43.2254 -23.2254 58 -5 58C13.2254 58 28 43.2254 28 25L-38 25Z" fill="#477D49"/>
<path d="M28 91C28 72.7746 13.2254 58 -4.99999 58C-23.2254 58 -38 72.7746 -38 91L28 91Z" fill="#8C0B04"/>
<circle cx="127" cy="-8" r="33" fill="#BA2526"/>
<circle cx="193" cy="58" r="33" fill="#477D49"/>
<path d="M193 -41C174.775 -41 160 -26.2254 160 -8C160 10.2254 174.775 25 193 25L193 -41Z" fill="#E69232"/>
<path d="M193 25C211.225 25 226 10.2254 226 -8C226 -26.2254 211.225 -41 193 -41L193 25Z" fill="#8C0B04"/>
<path d="M94 25C94 43.2254 108.775 58 127 58C145.225 58 160 43.2254 160 25L94 25Z" fill="#477D49"/>
<path d="M160 91C160 72.7746 145.225 58 127 58C108.775 58 94 72.7746 94 91L160 91Z" fill="#8C0B04"/>
<circle cx="259" cy="-8" r="33" fill="#BA2526"/>
<circle cx="325" cy="58" r="33" fill="#477D49"/>
<path d="M325 -41C306.775 -41 292 -26.2254 292 -8C292 10.2254 306.775 25 325 25L325 -41Z" fill="#E69232"/>
<path d="M226 25C226 43.2254 240.775 58 259 58C277.225 58 292 43.2254 292 25L226 25Z" fill="#477D49"/>
<path d="M292 91C292 72.7746 277.225 58 259 58C240.775 58 226 72.7746 226 91L292 91Z" fill="#8C0B04"/>
<circle cx="-5" cy="124" r="33" fill="#BA2526"/>
<circle cx="61" cy="190" r="33" fill="#477D49"/>
<path d="M61 91C42.7746 91 28 105.775 28 124C28 142.225 42.7746 157 61 157L61 91Z" fill="#E69232"/>
<path d="M61 157C79.2254 157 94 142.225 94 124C94 105.775 79.2254 91 61 91L61 157Z" fill="#8C0B04"/>
<path d="M-38 157C-38 175.225 -23.2254 190 -5 190C13.2254 190 28 175.225 28 157L-38 157Z" fill="#477D49"/>
<path d="M28 223C28 204.775 13.2254 190 -4.99999 190C-23.2254 190 -38 204.775 -38 223L28 223Z" fill="#8C0B04"/>
<circle cx="127" cy="124" r="33" fill="#BA2526"/>
<circle cx="193" cy="190" r="33" fill="#477D49"/>
<path d="M193 91C174.775 91 160 105.775 160 124C160 142.225 174.775 157 193 157L193 91Z" fill="#E69232"/>
<path d="M193 157C211.225 157 226 142.225 226 124C226 105.775 211.225 91 193 91L193 157Z" fill="#8C0B04"/>
<path d="M94 157C94 175.225 108.775 190 127 190C145.225 190 160 175.225 160 157L94 157Z" fill="#477D49"/>
<path d="M160 223C160 204.775 145.225 190 127 190C108.775 190 94 204.775 94 223L160 223Z" fill="#8C0B04"/>
<circle cx="259" cy="124" r="33" fill="#BA2526"/>
<circle cx="325" cy="190" r="33" fill="#477D49"/>
<path d="M325 91C306.775 91 292 105.775 292 124C292 142.225 306.775 157 325 157L325 91Z" fill="#E69232"/>
<path d="M226 157C226 175.225 240.775 190 259 190C277.225 190 292 175.225 292 157L226 157Z" fill="#477D49"/>
<path d="M292 223C292 204.775 277.225 190 259 190C240.775 190 226 204.775 226 223L292 223Z" fill="#8C0B04"/>
<circle cx="-5" cy="256" r="33" fill="#BA2526"/>
<circle cx="61" cy="322" r="33" fill="#477D49"/>
<path d="M61 223C42.7746 223 28 237.775 28 256C28 274.225 42.7746 289 61 289L61 223Z" fill="#E69232"/>
<path d="M61 289C79.2254 289 94 274.225 94 256C94 237.775 79.2254 223 61 223L61 289Z" fill="#8C0B04"/>
<path d="M-38 289C-38 307.225 -23.2254 322 -5 322C13.2254 322 28 307.225 28 289L-38 289Z" fill="#477D49"/>
<circle cx="127" cy="256" r="33" fill="#BA2526"/>
<circle cx="193" cy="322" r="33" fill="#477D49"/>
<path d="M193 223C174.775 223 160 237.775 160 256C160 274.225 174.775 289 193 289L193 223Z" fill="#E69232"/>
<path d="M193 289C211.225 289 226 274.225 226 256C226 237.775 211.225 223 193 223L193 289Z" fill="#8C0B04"/>
<path d="M94 289C94 307.225 108.775 322 127 322C145.225 322 160 307.225 160 289L94 289Z" fill="#477D49"/>
<circle cx="259" cy="256" r="33" fill="#BA2526"/>
<circle cx="325" cy="322" r="33" fill="#477D49"/>
<path d="M325 223C306.775 223 292 237.775 292 256C292 274.225 306.775 289 325 289L325 223Z" fill="#E69232"/>
<path d="M226 289C226 307.225 240.775 322 259 322C277.225 322 292 307.225 292 289L226 289Z" fill="#477D49"/>
</g>
<g filter="url(#filter1_d_26_15398)">
<path d="M10 22C10 15.3726 15.3726 10 22 10H298C304.627 10 310 15.3726 310 22V122C310 126.418 306.418 130 302 130H18C13.5817 130 10 126.418 10 122V22Z" fill="#1B4F35"/>
</g>
<g filter="url(#filter2_d_26_15398)">
<rect x="7" y="74" width="306" height="34" rx="2" fill="#8EB574"/>
</g>
<g filter="url(#filter3_dd_26_15398)">
<path d="M97.3578 88.5392C89.0277 87.6963 71.2821 93.2351 58.8013 103.349C47.3665 112.616 37.738 122.855 37.381 123.939C37.2912 124.211 37.7658 126.06 38.5152 128.979C40.746 137.668 45.4125 155.845 44.8781 170.176C47.6242 167.539 52.5702 161.421 57.5121 155.308C60.9222 151.09 64.3303 146.874 67.0124 143.806C75.2235 134.414 93.0594 118.882 109.125 105.155L97.3578 88.5392Z" fill="#8EB574"/>
<path d="M120.286 89.1837C128.698 88.3401 147.542 88.8222 155.617 97.4984C160.895 103.168 168.636 110.815 174.874 116.976C180.567 122.6 185.008 126.986 185.18 127.504C185.27 127.773 184.803 129.449 184.061 132.11C181.819 140.157 177.067 157.21 177.609 171.608C176.386 170.445 174.585 168.801 172.472 166.873C166.484 161.411 157.997 153.668 153.094 148.11C152.507 147.445 151.843 146.696 151.113 145.871C141.518 135.036 120.472 111.272 113.436 97.4984L120.286 89.1837Z" fill="#8EB574"/>
</g>
<g filter="url(#filter4_d_26_15398)">
<path d="M93.7943 67.6724C93.4317 66.4481 93.0447 65.1418 92.5332 63.7456C89.6455 55.863 76.2896 38.3064 72.319 35.7984C68.3483 33.2903 64.7386 35.7984 56.4364 42.606C53.5307 44.9886 50.1829 47.3272 47.0739 49.4992C41.2994 53.533 36.3485 56.9916 36.5831 59.0877C36.9441 62.3124 57.8802 85.2435 67.2654 91.3345C76.6506 97.4256 96.8649 96.709 105.528 91.3345L107.333 80.2273C96.6398 77.2789 95.479 73.3602 93.7943 67.6724Z" fill="#8EB574"/>
<path d="M131.19 67.1931C131.592 66.3536 132.01 65.4806 132.464 64.5717C134.943 59.6092 139.667 53.3419 143.99 47.6069C147.204 43.3436 150.196 39.3744 151.879 36.4539C152.966 34.5693 158.711 37.1749 166.981 44.0241C170.361 46.8241 174.343 49.3229 177.845 51.5205C182.909 54.6985 186.969 57.2464 186.756 59.1645C186.397 62.4088 170.224 85.8404 156.194 91.6081C145.86 95.8565 128.868 97.7364 120.239 92.3291L117.003 81.1541C126.18 77.6664 128.258 73.3228 131.19 67.1931Z" fill="#8EB574"/>
</g>
<g filter="url(#filter5_dd_26_15398)">
<path d="M115.243 71.0726C118.618 72.1403 124.538 71.0726 126.115 71.878C128.261 82.2972 125.381 100.294 120.026 109.626C117.268 110.432 106.505 110.099 104.928 109.696C94.9341 98.4555 93.4462 71.878 95.8106 71.0726C98.175 70.2672 109.98 69.4072 115.243 71.0726Z" fill="#8EB574"/>
</g>
</g>
<defs>
<filter id="filter0_d_26_15398" x="-4" y="-2" width="328" height="308" filterUnits="userSpaceOnUse" color-interpolation-filters="sRGB">
<feFlood flood-opacity="0" result="BackgroundImageFix"/>
<feColorMatrix in="SourceAlpha" type="matrix" values="0 0 0 0 0 0 0 0 0 0 0 0 0 0 0 0 0 0 127 0" result="hardAlpha"/>
<feOffset dy="2"/>
<feGaussianBlur stdDeviation="2"/>
<feComposite in2="hardAlpha" operator="out"/>
<feColorMatrix type="matrix" values="0 0 0 0 0 0 0 0 0 0 0 0 0 0 0 0 0 0 0.25 0"/>
<feBlend mode="normal" in2="BackgroundImageFix" result="effect1_dropShadow_26_15398"/>
<feBlend mode="normal" in="SourceGraphic" in2="effect1_dropShadow_26_15398" result="shape"/>
</filter>
<filter id="filter1_d_26_15398" x="6" y="8" width="308" height="128" filterUnits="userSpaceOnUse" color-interpolation-filters="sRGB">
<feFlood flood-opacity="0" result="BackgroundImageFix"/>
<feColorMatrix in="SourceAlpha" type="matrix" values="0 0 0 0 0 0 0 0 0 0 0 0 0 0 0 0 0 0 127 0" result="hardAlpha"/>
<feOffset dy="2"/>
<feGaussianBlur stdDeviation="2"/>
<feComposite in2="hardAlpha" operator="out"/>
<feColorMatrix type="matrix" values="0 0 0 0 0 0 0 0 0 0 0 0 0 0 0 0 0 0 0.25 0"/>
<feBlend mode="normal" in2="BackgroundImageFix" result="effect1_dropShadow_26_15398"/>
<feBlend mode="normal" in="SourceGraphic" in2="effect1_dropShadow_26_15398" result="shape"/>
</filter>
<filter id="filter2_d_26_15398" x="7" y="74" width="306" height="36" filterUnits="userSpaceOnUse" color-interpolation-filters="sRGB">
<feFlood flood-opacity="0" result="BackgroundImageFix"/>
<feColorMatrix in="SourceAlpha" type="matrix" values="0 0 0 0 0 0 0 0 0 0 0 0 0 0 0 0 0 0 127 0" result="hardAlpha"/>
<feOffset dy="2"/>
<feComposite in2="hardAlpha" operator="out"/>
<feColorMatrix type="matrix" values="0 0 0 0 0 0 0 0 0 0 0 0 0 0 0 0 0 0 0.2 0"/>
<feBlend mode="normal" in2="BackgroundImageFix" result="effect1_dropShadow_26_15398"/>
<feBlend mode="normal" in="SourceGraphic" in2="effect1_dropShadow_26_15398" result="shape"/>
</filter>
<filter id="filter3_dd_26_15398" x="36.3701" y="88.4551" width="150.821" height="87.153" filterUnits="userSpaceOnUse" color-interpolation-filters="sRGB">
<feFlood flood-opacity="0" result="BackgroundImageFix"/>
<feColorMatrix in="SourceAlpha" type="matrix" values="0 0 0 0 0 0 0 0 0 0 0 0 0 0 0 0 0 0 127 0" result="hardAlpha"/>
<feOffset dx="2" dy="4"/>
<feComposite in2="hardAlpha" operator="out"/>
<feColorMatrix type="matrix" values="0 0 0 0 0 0 0 0 0 0 0 0 0 0 0 0 0 0 0.2 0"/>
<feBlend mode="multiply" in2="BackgroundImageFix" result="effect1_dropShadow_26_15398"/>
<feColorMatrix in="SourceAlpha" type="matrix" values="0 0 0 0 0 0 0 0 0 0 0 0 0 0 0 0 0 0 127 0" result="hardAlpha"/>
<feOffset dx="-1"/>
<feComposite in2="hardAlpha" operator="out"/>
<feColorMatrix type="matrix" values="0 0 0 0 0 0 0 0 0 0 0 0 0 0 0 0 0 0 0.2 0"/>
<feBlend mode="normal" in2="effect1_dropShadow_26_15398" result="effect2_dropShadow_26_15398"/>
<feBlend mode="normal" in="SourceGraphic" in2="effect2_dropShadow_26_15398" result="shape"/>
</filter>
<filter id="filter4_d_26_15398" x="36.5751" y="34.8463" width="150.189" height="64.8074" filterUnits="userSpaceOnUse" color-interpolation-filters="sRGB">
<feFlood flood-opacity="0" result="BackgroundImageFix"/>
<feColorMatrix in="SourceAlpha" type="matrix" values="0 0 0 0 0 0 0 0 0 0 0 0 0 0 0 0 0 0 127 0" result="hardAlpha"/>
<feOffset dy="4"/>
<feComposite in2="hardAlpha" operator="out"/>
<feColorMatrix type="matrix" values="0 0 0 0 0 0 0 0 0 0 0 0 0 0 0 0 0 0 0.2 0"/>
<feBlend mode="multiply" in2="BackgroundImageFix" result="effect1_dropShadow_26_15398"/>
<feBlend mode="normal" in="SourceGraphic" in2="effect1_dropShadow_26_15398" result="shape"/>
</filter>
<filter id="filter5_dd_26_15398" x="93.8291" y="70.1195" width="35" height="44" filterUnits="userSpaceOnUse" color-interpolation-filters="sRGB">
<feFlood flood-opacity="0" result="BackgroundImageFix"/>
<feColorMatrix in="SourceAlpha" type="matrix" values="0 0 0 0 0 0 0 0 0 0 0 0 0 0 0 0 0 0 127 0" result="hardAlpha"/>
<feOffset dx="2" dy="4"/>
<feComposite in2="hardAlpha" operator="out"/>
<feColorMatrix type="matrix" values="0 0 0 0 0 0 0 0 0 0 0 0 0 0 0 0 0 0 0.2 0"/>
<feBlend mode="normal" in2="BackgroundImageFix" result="effect1_dropShadow_26_15398"/>
<feColorMatrix in="SourceAlpha" type="matrix" values="0 0 0 0 0 0 0 0 0 0 0 0 0 0 0 0 0 0 127 0" result="hardAlpha"/>
<feOffset dx="-1"/>
<feComposite in2="hardAlpha" operator="out"/>
<feColorMatrix type="matrix" values="0 0 0 0 0 0 0 0 0 0 0 0 0 0 0 0 0 0 0.2 0"/>
<feBlend mode="normal" in2="effect1_dropShadow_26_15398" result="effect2_dropShadow_26_15398"/>
<feBlend mode="normal" in="SourceGraphic" in2="effect2_dropShadow_26_15398" result="shape"/>
</filter>
<clipPath id="clip0_26_15398">
<rect x="20" y="24" width="280" height="266" rx="12" fill="white"/>
</clipPath>
</defs>
</svg>
