<svg width="320" height="300" viewBox="0 0 320 300" fill="none" xmlns="http://www.w3.org/2000/svg">
<g filter="url(#filter0_d_26_15374)">
<g clip-path="url(#clip0_26_15374)">
<rect x="20" y="24" width="280" height="266" rx="12" fill="#B58D67"/>
<path fill-rule="evenodd" clip-rule="evenodd" d="M102.982 69.3748C104.764 68.3441 105.963 66.4176 105.963 64.2111C105.963 60.9189 103.293 58.25 100 58.25C96.7067 58.25 94.037 60.9189 94.037 64.2111C94.037 66.4176 95.2362 68.3441 97.0185 69.3748V77.3439L91.0734 71.9409C89.8549 70.8336 87.9693 70.9234 86.8616 72.1414C85.754 73.3595 85.8438 75.2445 87.0622 76.3518L97.0185 85.4002V90.309L90.0634 94.3233L85.8109 91.8689L82.9505 78.7249C82.6004 77.1164 81.0123 76.0961 79.4033 76.4461C77.7943 76.796 76.7737 78.3836 77.1237 79.9921L78.8317 87.8407L71.9281 83.8562C71.9264 81.7977 70.8571 79.7962 68.9456 78.6929C66.0935 77.0468 62.4466 78.0237 60.7999 80.8749C59.1533 83.726 60.1305 87.3718 62.9825 89.0179C64.894 90.1212 67.1624 90.0462 68.9464 89.0186L75.8501 93.0032L68.1971 95.4486C66.6286 95.9498 65.7635 97.6272 66.2649 99.1952C66.7662 100.763 68.4441 101.628 70.0126 101.127L82.8292 97.0313L87.0801 99.4847V107.515L82.8294 109.969L70.0126 105.873C68.4442 105.372 66.7662 106.237 66.2649 107.805C65.7635 109.373 66.6286 111.05 68.1971 111.551L75.8503 113.997L68.9467 117.981C67.1626 116.953 64.894 116.879 62.9825 117.982C60.1305 119.628 59.1533 123.274 60.7999 126.125C62.4466 128.976 66.0935 129.953 68.9456 128.307C70.857 127.204 71.9263 125.202 71.9281 123.144L78.8317 119.159L77.1237 127.008C76.7737 128.616 77.7943 130.204 79.4033 130.554C81.0123 130.904 82.6004 129.883 82.9505 128.275L85.8108 115.131L90.0599 112.679L97.0185 116.695V121.6L87.0622 130.648C85.8438 131.755 85.754 133.641 86.8616 134.859C87.9693 136.077 89.8549 136.166 91.0734 135.059L97.0185 129.656V137.625C95.2362 138.656 94.037 140.582 94.037 142.789C94.037 146.081 96.7067 148.75 100 148.75C103.293 148.75 105.963 146.081 105.963 142.789C105.963 140.582 104.764 138.656 102.982 137.625V129.656L108.927 135.059C110.145 136.166 112.031 136.077 113.138 134.859C114.246 133.641 114.156 131.755 112.938 130.648L102.982 121.6V116.695L109.94 112.679L114.189 115.131L117.05 128.275C117.4 129.883 118.988 130.904 120.597 130.554C122.206 130.204 123.226 128.616 122.876 127.008L121.168 119.159L128.072 123.144C128.074 125.202 129.143 127.204 131.054 128.307C133.907 129.953 137.553 128.976 139.2 126.125C140.847 123.274 139.87 119.628 137.018 117.982C135.106 116.879 132.837 116.953 131.053 117.981L124.15 113.997L131.803 111.551C133.371 111.05 134.237 109.373 133.735 107.805C133.234 106.237 131.556 105.372 129.987 105.873L117.171 109.969L112.92 107.515V99.4847L117.171 97.0313L129.987 101.127C131.556 101.628 133.234 100.763 133.735 99.1952C134.237 97.6272 133.371 95.9498 131.803 95.4486L124.15 93.0031L131.054 89.0186C132.838 90.0462 135.106 90.1212 137.018 89.0179C139.87 87.3718 140.847 83.726 139.2 80.8749C137.553 78.0237 133.907 77.0468 131.054 78.6929C129.143 79.7962 128.074 81.7977 128.072 83.8561L121.168 87.8407L122.876 79.9921C123.226 78.3836 122.206 76.796 120.597 76.4461C118.988 76.0961 117.4 77.1164 117.05 78.7249L114.189 91.8688L109.937 94.3232L102.982 90.309V85.4002L112.938 76.3518C114.156 75.2445 114.246 73.3595 113.138 72.1414C112.031 70.9234 110.145 70.8336 108.927 71.9409L102.982 77.3439V69.3748ZM93.0431 99.4868V107.517L100 111.533L106.957 107.517V99.4868L100 95.4715L93.0431 99.4868Z" fill="#F1F2F2"/>
<path d="M25.963 144.461C25.963 141.169 23.2933 138.5 20 138.5V175.721L26.9569 179.737V184H32.9199V179.735L37.1708 177.281L49.9874 181.377C51.5559 181.878 53.2338 181.013 53.7352 179.445C54.2365 177.877 53.3714 176.2 51.803 175.699L44.1499 173.253L51.0536 169.269C52.8376 170.296 55.1061 170.371 57.0175 169.268C59.8696 167.622 60.8468 163.976 59.2001 161.125C57.5535 158.274 53.9065 157.297 51.0545 158.943C49.1429 160.046 48.0736 162.048 48.0719 164.106L41.1683 168.091L42.8763 160.242C43.2264 158.634 42.2058 157.046 40.5968 156.696C38.9878 156.346 37.3996 157.366 37.0496 158.975L34.1891 172.119L29.9366 174.573L22.9815 170.559V165.65L32.9378 156.602C34.1563 155.495 34.246 153.609 33.1384 152.391C32.0307 151.173 30.1451 151.084 28.9267 152.191L22.9815 157.594V149.625C24.7639 148.594 25.963 146.668 25.963 144.461Z" fill="#F1F2F2"/>
<path d="M174.037 144.461C174.037 141.169 176.707 138.5 180 138.5V175.721L173.043 179.737V184H167.08V179.735L162.829 177.281L150.013 181.377C148.444 181.878 146.766 181.013 146.265 179.445C145.764 177.877 146.629 176.2 148.197 175.699L155.85 173.253L148.946 169.269C147.162 170.296 144.894 170.371 142.983 169.268C140.13 167.622 139.153 163.976 140.8 161.125C142.447 158.274 146.093 157.297 148.946 158.943C150.857 160.046 151.926 162.048 151.928 164.106L158.832 168.091L157.124 160.242C156.774 158.634 157.794 157.046 159.403 156.696C161.012 156.346 162.6 157.366 162.95 158.975L165.811 172.119L170.063 174.573L177.018 170.559V165.65L167.062 156.602C165.844 155.495 165.754 153.609 166.862 152.391C167.969 151.173 169.855 151.084 171.073 152.191L177.018 157.594V149.625C175.236 148.594 174.037 146.668 174.037 144.461Z" fill="#F1F2F2"/>
<path d="M25.963 63.5389C25.963 66.8311 23.2933 69.5 20 69.5V32.2785L26.9569 28.2632V24H32.9199V28.2653L37.1708 30.7187L49.9874 26.6232C51.5559 26.122 53.2338 26.9868 53.7352 28.5548C54.2365 30.1228 53.3714 31.8002 51.803 32.3014L44.1499 34.7468L51.0536 38.7314C52.8376 37.7038 55.1061 37.6288 57.0175 38.7321C59.8696 40.3782 60.8468 44.024 59.2001 46.8751C57.5535 49.7263 53.9065 50.7032 51.0545 49.0571C49.1429 47.9538 48.0736 45.9523 48.0719 43.8938L41.1683 39.9093L42.8763 47.7579C43.2264 49.3664 42.2058 50.954 40.5968 51.3039C38.9878 51.6539 37.3996 50.6336 37.0496 49.0251L34.1891 35.8811L29.9366 33.4267L22.9815 37.441V42.3498L32.9378 51.3982C34.1563 52.5055 34.246 54.3905 33.1384 55.6086C32.0307 56.8266 30.1451 56.9164 28.9267 55.8091L22.9815 50.4061V58.3752C24.7639 59.4059 25.963 61.3324 25.963 63.5389Z" fill="#F1F2F2"/>
<path d="M174.037 63.5389C174.037 66.8311 176.707 69.5 180 69.5V32.2785L173.043 28.2632V24H167.08V28.2653L162.829 30.7187L150.013 26.6232C148.444 26.122 146.766 26.9868 146.265 28.5548C145.764 30.1228 146.629 31.8002 148.197 32.3014L155.85 34.7468L148.946 38.7314C147.162 37.7038 144.894 37.6288 142.983 38.7321C140.13 40.3782 139.153 44.024 140.8 46.8751C142.447 49.7263 146.093 50.7032 148.946 49.0571C150.857 47.9538 151.926 45.9523 151.928 43.8938L158.832 39.9093L157.124 47.7579C156.774 49.3664 157.794 50.954 159.403 51.3039C161.012 51.6539 162.6 50.6336 162.95 49.0251L165.811 35.8811L170.063 33.4267L177.018 37.441V42.3498L167.062 51.3982C165.844 52.5055 165.754 54.3905 166.862 55.6086C167.969 56.8266 169.855 56.9164 171.073 55.8091L177.018 50.4061V58.3752C175.236 59.4059 174.037 61.3324 174.037 63.5389Z" fill="#F1F2F2"/>
<path d="M20 116C26.6274 116 32 110.627 32 104C32 97.3726 26.6274 92 20 92V116Z" fill="#DCDCDE"/>
<path d="M180 92C173.373 92 168 97.3726 168 104C168 110.627 173.373 116 180 116V92Z" fill="#DCDCDE"/>
<path d="M100 36C93.3726 36 88 30.6274 88 24H112C112 30.6274 106.627 36 100 36Z" fill="#DCDCDE"/>
<path d="M100 172C106.627 172 112 177.373 112 184H88C88 177.373 93.3726 172 100 172Z" fill="#DCDCDE"/>
<path fill-rule="evenodd" clip-rule="evenodd" d="M262.982 69.3748C264.764 68.3441 265.963 66.4176 265.963 64.2111C265.963 60.9189 263.293 58.25 260 58.25C256.707 58.25 254.037 60.9189 254.037 64.2111C254.037 66.4176 255.236 68.3441 257.019 69.3748V77.3439L251.073 71.9409C249.855 70.8336 247.969 70.9234 246.862 72.1414C245.754 73.3595 245.844 75.2445 247.062 76.3518L257.019 85.4002V90.309L250.063 94.3233L245.811 91.8689L242.95 78.7249C242.6 77.1164 241.012 76.0961 239.403 76.4461C237.794 76.796 236.774 78.3836 237.124 79.9921L238.832 87.8407L231.928 83.8562C231.926 81.7977 230.857 79.7962 228.946 78.6929C226.093 77.0468 222.447 78.0237 220.8 80.8749C219.153 83.726 220.13 87.3718 222.983 89.0179C224.894 90.1212 227.162 90.0462 228.946 89.0186L235.85 93.0032L228.197 95.4486C226.629 95.9498 225.764 97.6272 226.265 99.1952C226.766 100.763 228.444 101.628 230.013 101.127L242.829 97.0313L247.08 99.4847V107.515L242.829 109.969L230.013 105.873C228.444 105.372 226.766 106.237 226.265 107.805C225.764 109.373 226.629 111.05 228.197 111.551L235.85 113.997L228.947 117.981C227.163 116.953 224.894 116.879 222.983 117.982C220.13 119.628 219.153 123.274 220.8 126.125C222.447 128.976 226.093 129.953 228.946 128.307C230.857 127.204 231.926 125.202 231.928 123.144L238.832 119.159L237.124 127.008C236.774 128.616 237.794 130.204 239.403 130.554C241.012 130.904 242.6 129.883 242.95 128.275L245.811 115.131L250.06 112.679L257.019 116.695V121.6L247.062 130.648C245.844 131.755 245.754 133.641 246.862 134.859C247.969 136.077 249.855 136.166 251.073 135.059L257.019 129.656V137.625C255.236 138.656 254.037 140.582 254.037 142.789C254.037 146.081 256.707 148.75 260 148.75C263.293 148.75 265.963 146.081 265.963 142.789C265.963 140.582 264.764 138.656 262.982 137.625V129.656L268.927 135.059C270.145 136.166 272.031 136.077 273.138 134.859C274.246 133.641 274.156 131.755 272.938 130.648L262.982 121.6V116.695L269.94 112.679L274.189 115.131L277.05 128.275C277.4 129.883 278.988 130.904 280.597 130.554C282.206 130.204 283.226 128.616 282.876 127.008L281.168 119.159L288.072 123.144C288.074 125.202 289.143 127.204 291.054 128.307C293.907 129.953 297.553 128.976 299.2 126.125C300.847 123.274 299.87 119.628 297.018 117.982C295.106 116.879 292.837 116.953 291.053 117.981L284.15 113.997L291.803 111.551C293.371 111.05 294.237 109.373 293.735 107.805C293.234 106.237 291.556 105.372 289.987 105.873L277.171 109.969L272.92 107.515V99.4847L277.171 97.0313L289.987 101.127C291.556 101.628 293.234 100.763 293.735 99.1952C294.237 97.6272 293.371 95.9498 291.803 95.4486L284.15 93.0031L291.054 89.0186C292.838 90.0462 295.106 90.1212 297.018 89.0179C299.87 87.3718 300.847 83.726 299.2 80.8749C297.553 78.0237 293.907 77.0468 291.054 78.6929C289.143 79.7962 288.074 81.7977 288.072 83.8561L281.168 87.8407L282.876 79.9921C283.226 78.3836 282.206 76.796 280.597 76.4461C278.988 76.0961 277.4 77.1164 277.05 78.7249L274.189 91.8688L269.937 94.3232L262.982 90.309V85.4002L272.938 76.3518C274.156 75.2445 274.246 73.3595 273.138 72.1414C272.031 70.9234 270.145 70.8336 268.927 71.9409L262.982 77.3439V69.3748ZM253.043 99.4868V107.517L260 111.533L266.957 107.517V99.4868L260 95.4715L253.043 99.4868Z" fill="#F1F2F2"/>
<path d="M185.963 144.461C185.963 141.169 183.293 138.5 180 138.5V175.721L186.957 179.737V184H192.92V179.735L197.171 177.281L209.987 181.377C211.556 181.878 213.234 181.013 213.735 179.445C214.237 177.877 213.371 176.2 211.803 175.699L204.15 173.253L211.054 169.269C212.838 170.296 215.106 170.371 217.017 169.268C219.87 167.622 220.847 163.976 219.2 161.125C217.553 158.274 213.907 157.297 211.054 158.943C209.143 160.046 208.074 162.048 208.072 164.106L201.168 168.091L202.876 160.242C203.226 158.634 202.206 157.046 200.597 156.696C198.988 156.346 197.4 157.366 197.05 158.975L194.189 172.119L189.937 174.573L182.982 170.559V165.65L192.938 156.602C194.156 155.495 194.246 153.609 193.138 152.391C192.031 151.173 190.145 151.084 188.927 152.191L182.982 157.594V149.625C184.764 148.594 185.963 146.668 185.963 144.461Z" fill="#F1F2F2"/>
<path d="M334.037 144.461C334.037 141.169 336.707 138.5 340 138.5V175.721L333.043 179.737V184H327.08V179.735L322.829 177.281L310.013 181.377C308.444 181.878 306.766 181.013 306.265 179.445C305.764 177.877 306.629 176.2 308.197 175.699L315.85 173.253L308.946 169.269C307.162 170.296 304.894 170.371 302.983 169.268C300.13 167.622 299.153 163.976 300.8 161.125C302.447 158.274 306.093 157.297 308.946 158.943C310.857 160.046 311.926 162.048 311.928 164.106L318.832 168.091L317.124 160.242C316.774 158.634 317.794 157.046 319.403 156.696C321.012 156.346 322.6 157.366 322.95 158.975L325.811 172.119L330.063 174.573L337.018 170.559V165.65L327.062 156.602C325.844 155.495 325.754 153.609 326.862 152.391C327.969 151.173 329.855 151.084 331.073 152.191L337.018 157.594V149.625C335.236 148.594 334.037 146.668 334.037 144.461Z" fill="#F1F2F2"/>
<path d="M185.963 63.5389C185.963 66.8311 183.293 69.5 180 69.5V32.2785L186.957 28.2632V24H192.92V28.2653L197.171 30.7187L209.987 26.6232C211.556 26.122 213.234 26.9868 213.735 28.5548C214.237 30.1228 213.371 31.8002 211.803 32.3014L204.15 34.7468L211.054 38.7314C212.838 37.7038 215.106 37.6288 217.017 38.7321C219.87 40.3782 220.847 44.024 219.2 46.8751C217.553 49.7263 213.907 50.7032 211.054 49.0571C209.143 47.9538 208.074 45.9523 208.072 43.8938L201.168 39.9093L202.876 47.7579C203.226 49.3664 202.206 50.954 200.597 51.3039C198.988 51.6539 197.4 50.6336 197.05 49.0251L194.189 35.8811L189.937 33.4267L182.982 37.441V42.3498L192.938 51.3982C194.156 52.5055 194.246 54.3905 193.138 55.6086C192.031 56.8266 190.145 56.9164 188.927 55.8091L182.982 50.4061V58.3752C184.764 59.4059 185.963 61.3324 185.963 63.5389Z" fill="#F1F2F2"/>
<path d="M334.037 63.5389C334.037 66.8311 336.707 69.5 340 69.5V32.2785L333.043 28.2632V24H327.08V28.2653L322.829 30.7187L310.013 26.6232C308.444 26.122 306.766 26.9868 306.265 28.5548C305.764 30.1228 306.629 31.8002 308.197 32.3014L315.85 34.7468L308.946 38.7314C307.162 37.7038 304.894 37.6288 302.983 38.7321C300.13 40.3782 299.153 44.024 300.8 46.8751C302.447 49.7263 306.093 50.7032 308.946 49.0571C310.857 47.9538 311.926 45.9523 311.928 43.8938L318.832 39.9093L317.124 47.7579C316.774 49.3664 317.794 50.954 319.403 51.3039C321.012 51.6539 322.6 50.6336 322.95 49.0251L325.811 35.8811L330.063 33.4267L337.018 37.441V42.3498L327.062 51.3982C325.844 52.5055 325.754 54.3905 326.862 55.6086C327.969 56.8266 329.855 56.9164 331.073 55.8091L337.018 50.4061V58.3752C335.236 59.4059 334.037 61.3324 334.037 63.5389Z" fill="#F1F2F2"/>
<path d="M180 116C186.627 116 192 110.627 192 104C192 97.3726 186.627 92 180 92V116Z" fill="#DCDCDE"/>
<path d="M340 92C333.373 92 328 97.3726 328 104C328 110.627 333.373 116 340 116V92Z" fill="#DCDCDE"/>
<path d="M260 36C253.373 36 248 30.6274 248 24H272C272 30.6274 266.627 36 260 36Z" fill="#DCDCDE"/>
<path d="M260 172C266.627 172 272 177.373 272 184H248C248 177.373 253.373 172 260 172Z" fill="#DCDCDE"/>
<path fill-rule="evenodd" clip-rule="evenodd" d="M102.982 229.375C104.764 228.344 105.963 226.418 105.963 224.211C105.963 220.919 103.293 218.25 100 218.25C96.7067 218.25 94.037 220.919 94.037 224.211C94.037 226.418 95.2362 228.344 97.0185 229.375V237.344L91.0734 231.941C89.8549 230.834 87.9693 230.923 86.8616 232.141C85.754 233.359 85.8438 235.245 87.0622 236.352L97.0185 245.4V250.309L90.0634 254.323L85.8109 251.869L82.9505 238.725C82.6004 237.116 81.0123 236.096 79.4033 236.446C77.7943 236.796 76.7737 238.384 77.1237 239.992L78.8317 247.841L71.9281 243.856C71.9264 241.798 70.8571 239.796 68.9456 238.693C66.0935 237.047 62.4466 238.024 60.7999 240.875C59.1533 243.726 60.1305 247.372 62.9825 249.018C64.894 250.121 67.1624 250.046 68.9464 249.019L75.8501 253.003L68.1971 255.449C66.6286 255.95 65.7635 257.627 66.2649 259.195C66.7662 260.763 68.4441 261.628 70.0126 261.127L82.8292 257.031L87.0801 259.485V267.515L82.8294 269.969L70.0126 265.873C68.4442 265.372 66.7662 266.237 66.2649 267.805C65.7635 269.373 66.6286 271.05 68.1971 271.551L75.8503 273.997L68.9467 277.981C67.1626 276.953 64.894 276.879 62.9825 277.982C60.1305 279.628 59.1533 283.274 60.7999 286.125C62.4466 288.976 66.0935 289.953 68.9456 288.307C70.857 287.204 71.9263 285.202 71.9281 283.144L78.8317 279.159L77.1237 287.008C76.7737 288.616 77.7943 290.204 79.4033 290.554C81.0123 290.904 82.6004 289.883 82.9505 288.275L85.8108 275.131L90.0599 272.679L97.0185 276.695V281.6L87.0622 290.648C85.8438 291.755 85.754 293.641 86.8616 294.859C87.9693 296.077 89.8549 296.166 91.0734 295.059L97.0185 289.656V297.625C95.2362 298.656 94.037 300.582 94.037 302.789C94.037 306.081 96.7067 308.75 100 308.75C103.293 308.75 105.963 306.081 105.963 302.789C105.963 300.582 104.764 298.656 102.982 297.625V289.656L108.927 295.059C110.145 296.166 112.031 296.077 113.138 294.859C114.246 293.641 114.156 291.755 112.938 290.648L102.982 281.6V276.695L109.94 272.679L114.189 275.131L117.05 288.275C117.4 289.883 118.988 290.904 120.597 290.554C122.206 290.204 123.226 288.616 122.876 287.008L121.168 279.159L128.072 283.144C128.074 285.202 129.143 287.204 131.054 288.307C133.907 289.953 137.553 288.976 139.2 286.125C140.847 283.274 139.87 279.628 137.018 277.982C135.106 276.879 132.837 276.953 131.053 277.981L124.15 273.997L131.803 271.551C133.371 271.05 134.237 269.373 133.735 267.805C133.234 266.237 131.556 265.372 129.987 265.873L117.171 269.969L112.92 267.515V259.485L117.171 257.031L129.987 261.127C131.556 261.628 133.234 260.763 133.735 259.195C134.237 257.627 133.371 255.95 131.803 255.449L124.15 253.003L131.054 249.019C132.838 250.046 135.106 250.121 137.018 249.018C139.87 247.372 140.847 243.726 139.2 240.875C137.553 238.024 133.907 237.047 131.054 238.693C129.143 239.796 128.074 241.798 128.072 243.856L121.168 247.841L122.876 239.992C123.226 238.384 122.206 236.796 120.597 236.446C118.988 236.096 117.4 237.116 117.05 238.725L114.189 251.869L109.937 254.323L102.982 250.309V245.4L112.938 236.352C114.156 235.245 114.246 233.359 113.138 232.141C112.031 230.923 110.145 230.834 108.927 231.941L102.982 237.344V229.375ZM93.0431 259.487V267.517L100 271.533L106.957 267.517V259.487L100 255.472L93.0431 259.487Z" fill="#F1F2F2"/>
<path d="M25.963 304.461C25.963 301.169 23.2933 298.5 20 298.5V335.721L26.9569 339.737V344H32.9199V339.735L37.1708 337.281L49.9874 341.377C51.5559 341.878 53.2338 341.013 53.7352 339.445C54.2365 337.877 53.3714 336.2 51.803 335.699L44.1499 333.253L51.0536 329.269C52.8376 330.296 55.1061 330.371 57.0175 329.268C59.8696 327.622 60.8468 323.976 59.2001 321.125C57.5535 318.274 53.9065 317.297 51.0545 318.943C49.1429 320.046 48.0736 322.048 48.0719 324.106L41.1683 328.091L42.8763 320.242C43.2264 318.634 42.2058 317.046 40.5968 316.696C38.9878 316.346 37.3996 317.366 37.0496 318.975L34.1891 332.119L29.9366 334.573L22.9815 330.559V325.65L32.9378 316.602C34.1563 315.495 34.246 313.609 33.1384 312.391C32.0307 311.173 30.1451 311.084 28.9267 312.191L22.9815 317.594V309.625C24.7639 308.594 25.963 306.668 25.963 304.461Z" fill="#F1F2F2"/>
<path d="M174.037 304.461C174.037 301.169 176.707 298.5 180 298.5V335.721L173.043 339.737V344H167.08V339.735L162.829 337.281L150.013 341.377C148.444 341.878 146.766 341.013 146.265 339.445C145.764 337.877 146.629 336.2 148.197 335.699L155.85 333.253L148.946 329.269C147.162 330.296 144.894 330.371 142.983 329.268C140.13 327.622 139.153 323.976 140.8 321.125C142.447 318.274 146.093 317.297 148.946 318.943C150.857 320.046 151.926 322.048 151.928 324.106L158.832 328.091L157.124 320.242C156.774 318.634 157.794 317.046 159.403 316.696C161.012 316.346 162.6 317.366 162.95 318.975L165.811 332.119L170.063 334.573L177.018 330.559V325.65L167.062 316.602C165.844 315.495 165.754 313.609 166.862 312.391C167.969 311.173 169.855 311.084 171.073 312.191L177.018 317.594V309.625C175.236 308.594 174.037 306.668 174.037 304.461Z" fill="#F1F2F2"/>
<path d="M25.963 223.539C25.963 226.831 23.2933 229.5 20 229.5V192.278L26.9569 188.263V184H32.9199V188.265L37.1708 190.719L49.9874 186.623C51.5559 186.122 53.2338 186.987 53.7352 188.555C54.2365 190.123 53.3714 191.8 51.803 192.301L44.1499 194.747L51.0536 198.731C52.8376 197.704 55.1061 197.629 57.0175 198.732C59.8696 200.378 60.8468 204.024 59.2001 206.875C57.5535 209.726 53.9065 210.703 51.0545 209.057C49.1429 207.954 48.0736 205.952 48.0719 203.894L41.1683 199.909L42.8763 207.758C43.2264 209.366 42.2058 210.954 40.5968 211.304C38.9878 211.654 37.3996 210.634 37.0496 209.025L34.1891 195.881L29.9366 193.427L22.9815 197.441V202.35L32.9378 211.398C34.1563 212.505 34.246 214.391 33.1384 215.609C32.0307 216.827 30.1451 216.916 28.9267 215.809L22.9815 210.406V218.375C24.7639 219.406 25.963 221.332 25.963 223.539Z" fill="#F1F2F2"/>
<path d="M174.037 223.539C174.037 226.831 176.707 229.5 180 229.5V192.278L173.043 188.263V184H167.08V188.265L162.829 190.719L150.013 186.623C148.444 186.122 146.766 186.987 146.265 188.555C145.764 190.123 146.629 191.8 148.197 192.301L155.85 194.747L148.946 198.731C147.162 197.704 144.894 197.629 142.983 198.732C140.13 200.378 139.153 204.024 140.8 206.875C142.447 209.726 146.093 210.703 148.946 209.057C150.857 207.954 151.926 205.952 151.928 203.894L158.832 199.909L157.124 207.758C156.774 209.366 157.794 210.954 159.403 211.304C161.012 211.654 162.6 210.634 162.95 209.025L165.811 195.881L170.063 193.427L177.018 197.441V202.35L167.062 211.398C165.844 212.505 165.754 214.391 166.862 215.609C167.969 216.827 169.855 216.916 171.073 215.809L177.018 210.406V218.375C175.236 219.406 174.037 221.332 174.037 223.539Z" fill="#F1F2F2"/>
<path d="M20 276C26.6274 276 32 270.627 32 264C32 257.373 26.6274 252 20 252V276Z" fill="#DCDCDE"/>
<path d="M180 252C173.373 252 168 257.373 168 264C168 270.627 173.373 276 180 276V252Z" fill="#DCDCDE"/>
<path d="M100 196C93.3726 196 88 190.627 88 184H112C112 190.627 106.627 196 100 196Z" fill="#DCDCDE"/>
<path d="M100 332C106.627 332 112 337.373 112 344H88C88 337.373 93.3726 332 100 332Z" fill="#DCDCDE"/>
<path fill-rule="evenodd" clip-rule="evenodd" d="M262.982 229.375C264.764 228.344 265.963 226.418 265.963 224.211C265.963 220.919 263.293 218.25 260 218.25C256.707 218.25 254.037 220.919 254.037 224.211C254.037 226.418 255.236 228.344 257.019 229.375V237.344L251.073 231.941C249.855 230.834 247.969 230.923 246.862 232.141C245.754 233.359 245.844 235.245 247.062 236.352L257.019 245.4V250.309L250.063 254.323L245.811 251.869L242.95 238.725C242.6 237.116 241.012 236.096 239.403 236.446C237.794 236.796 236.774 238.384 237.124 239.992L238.832 247.841L231.928 243.856C231.926 241.798 230.857 239.796 228.946 238.693C226.093 237.047 222.447 238.024 220.8 240.875C219.153 243.726 220.13 247.372 222.983 249.018C224.894 250.121 227.162 250.046 228.946 249.019L235.85 253.003L228.197 255.449C226.629 255.95 225.764 257.627 226.265 259.195C226.766 260.763 228.444 261.628 230.013 261.127L242.829 257.031L247.08 259.485V267.515L242.829 269.969L230.013 265.873C228.444 265.372 226.766 266.237 226.265 267.805C225.764 269.373 226.629 271.05 228.197 271.551L235.85 273.997L228.947 277.981C227.163 276.953 224.894 276.879 222.983 277.982C220.13 279.628 219.153 283.274 220.8 286.125C222.447 288.976 226.093 289.953 228.946 288.307C230.857 287.204 231.926 285.202 231.928 283.144L238.832 279.159L237.124 287.008C236.774 288.616 237.794 290.204 239.403 290.554C241.012 290.904 242.6 289.883 242.95 288.275L245.811 275.131L250.06 272.679L257.019 276.695V281.6L247.062 290.648C245.844 291.755 245.754 293.641 246.862 294.859C247.969 296.077 249.855 296.166 251.073 295.059L257.019 289.656V297.625C255.236 298.656 254.037 300.582 254.037 302.789C254.037 306.081 256.707 308.75 260 308.75C263.293 308.75 265.963 306.081 265.963 302.789C265.963 300.582 264.764 298.656 262.982 297.625V289.656L268.927 295.059C270.145 296.166 272.031 296.077 273.138 294.859C274.246 293.641 274.156 291.755 272.938 290.648L262.982 281.6V276.695L269.94 272.679L274.189 275.131L277.05 288.275C277.4 289.883 278.988 290.904 280.597 290.554C282.206 290.204 283.226 288.616 282.876 287.008L281.168 279.159L288.072 283.144C288.074 285.202 289.143 287.204 291.054 288.307C293.907 289.953 297.553 288.976 299.2 286.125C300.847 283.274 299.87 279.628 297.018 277.982C295.106 276.879 292.837 276.953 291.053 277.981L284.15 273.997L291.803 271.551C293.371 271.05 294.237 269.373 293.735 267.805C293.234 266.237 291.556 265.372 289.987 265.873L277.171 269.969L272.92 267.515V259.485L277.171 257.031L289.987 261.127C291.556 261.628 293.234 260.763 293.735 259.195C294.237 257.627 293.371 255.95 291.803 255.449L284.15 253.003L291.054 249.019C292.838 250.046 295.106 250.121 297.018 249.018C299.87 247.372 300.847 243.726 299.2 240.875C297.553 238.024 293.907 237.047 291.054 238.693C289.143 239.796 288.074 241.798 288.072 243.856L281.168 247.841L282.876 239.992C283.226 238.384 282.206 236.796 280.597 236.446C278.988 236.096 277.4 237.116 277.05 238.725L274.189 251.869L269.937 254.323L262.982 250.309V245.4L272.938 236.352C274.156 235.245 274.246 233.359 273.138 232.141C272.031 230.923 270.145 230.834 268.927 231.941L262.982 237.344V229.375ZM253.043 259.487V267.517L260 271.533L266.957 267.517V259.487L260 255.472L253.043 259.487Z" fill="#F1F2F2"/>
<path d="M185.963 304.461C185.963 301.169 183.293 298.5 180 298.5V335.721L186.957 339.737V344H192.92V339.735L197.171 337.281L209.987 341.377C211.556 341.878 213.234 341.013 213.735 339.445C214.237 337.877 213.371 336.2 211.803 335.699L204.15 333.253L211.054 329.269C212.838 330.296 215.106 330.371 217.017 329.268C219.87 327.622 220.847 323.976 219.2 321.125C217.553 318.274 213.907 317.297 211.054 318.943C209.143 320.046 208.074 322.048 208.072 324.106L201.168 328.091L202.876 320.242C203.226 318.634 202.206 317.046 200.597 316.696C198.988 316.346 197.4 317.366 197.05 318.975L194.189 332.119L189.937 334.573L182.982 330.559V325.65L192.938 316.602C194.156 315.495 194.246 313.609 193.138 312.391C192.031 311.173 190.145 311.084 188.927 312.191L182.982 317.594V309.625C184.764 308.594 185.963 306.668 185.963 304.461Z" fill="#F1F2F2"/>
<path d="M334.037 304.461C334.037 301.169 336.707 298.5 340 298.5V335.721L333.043 339.737V344H327.08V339.735L322.829 337.281L310.013 341.377C308.444 341.878 306.766 341.013 306.265 339.445C305.764 337.877 306.629 336.2 308.197 335.699L315.85 333.253L308.946 329.269C307.162 330.296 304.894 330.371 302.983 329.268C300.13 327.622 299.153 323.976 300.8 321.125C302.447 318.274 306.093 317.297 308.946 318.943C310.857 320.046 311.926 322.048 311.928 324.106L318.832 328.091L317.124 320.242C316.774 318.634 317.794 317.046 319.403 316.696C321.012 316.346 322.6 317.366 322.95 318.975L325.811 332.119L330.063 334.573L337.018 330.559V325.65L327.062 316.602C325.844 315.495 325.754 313.609 326.862 312.391C327.969 311.173 329.855 311.084 331.073 312.191L337.018 317.594V309.625C335.236 308.594 334.037 306.668 334.037 304.461Z" fill="#F1F2F2"/>
<path d="M185.963 223.539C185.963 226.831 183.293 229.5 180 229.5V192.278L186.957 188.263V184H192.92V188.265L197.171 190.719L209.987 186.623C211.556 186.122 213.234 186.987 213.735 188.555C214.237 190.123 213.371 191.8 211.803 192.301L204.15 194.747L211.054 198.731C212.838 197.704 215.106 197.629 217.017 198.732C219.87 200.378 220.847 204.024 219.2 206.875C217.553 209.726 213.907 210.703 211.054 209.057C209.143 207.954 208.074 205.952 208.072 203.894L201.168 199.909L202.876 207.758C203.226 209.366 202.206 210.954 200.597 211.304C198.988 211.654 197.4 210.634 197.05 209.025L194.189 195.881L189.937 193.427L182.982 197.441V202.35L192.938 211.398C194.156 212.505 194.246 214.391 193.138 215.609C192.031 216.827 190.145 216.916 188.927 215.809L182.982 210.406V218.375C184.764 219.406 185.963 221.332 185.963 223.539Z" fill="#F1F2F2"/>
<path d="M334.037 223.539C334.037 226.831 336.707 229.5 340 229.5V192.278L333.043 188.263V184H327.08V188.265L322.829 190.719L310.013 186.623C308.444 186.122 306.766 186.987 306.265 188.555C305.764 190.123 306.629 191.8 308.197 192.301L315.85 194.747L308.946 198.731C307.162 197.704 304.894 197.629 302.983 198.732C300.13 200.378 299.153 204.024 300.8 206.875C302.447 209.726 306.093 210.703 308.946 209.057C310.857 207.954 311.926 205.952 311.928 203.894L318.832 199.909L317.124 207.758C316.774 209.366 317.794 210.954 319.403 211.304C321.012 211.654 322.6 210.634 322.95 209.025L325.811 195.881L330.063 193.427L337.018 197.441V202.35L327.062 211.398C325.844 212.505 325.754 214.391 326.862 215.609C327.969 216.827 329.855 216.916 331.073 215.809L337.018 210.406V218.375C335.236 219.406 334.037 221.332 334.037 223.539Z" fill="#F1F2F2"/>
<path d="M180 276C186.627 276 192 270.627 192 264C192 257.373 186.627 252 180 252V276Z" fill="#DCDCDE"/>
<path d="M340 252C333.373 252 328 257.373 328 264C328 270.627 333.373 276 340 276V252Z" fill="#DCDCDE"/>
<path d="M260 196C253.373 196 248 190.627 248 184H272C272 190.627 266.627 196 260 196Z" fill="#DCDCDE"/>
<path d="M260 332C266.627 332 272 337.373 272 344H248C248 337.373 253.373 332 260 332Z" fill="#DCDCDE"/>
</g>
<g filter="url(#filter1_d_26_15374)">
<path d="M10 22C10 15.3726 15.3726 10 22 10H298C304.627 10 310 15.3726 310 22V122C310 126.418 306.418 130 302 130H18C13.5817 130 10 126.418 10 122V22Z" fill="#B58D67"/>
</g>
<g filter="url(#filter2_d_26_15374)">
<rect x="7" y="74" width="306" height="34" rx="2" fill="#8C0B04"/>
</g>
<g filter="url(#filter3_dd_26_15374)">
<path d="M97.3578 88.5392C89.0277 87.6963 71.2821 93.2351 58.8013 103.349C47.3665 112.616 37.738 122.855 37.381 123.939C37.2912 124.211 37.7658 126.06 38.5152 128.979C40.746 137.668 45.4125 155.845 44.8781 170.176C47.6242 167.539 52.5702 161.421 57.5121 155.308C60.9222 151.09 64.3303 146.874 67.0124 143.806C75.2235 134.414 93.0594 118.882 109.125 105.155L97.3578 88.5392Z" fill="#8C0B04"/>
<path d="M120.286 89.1837C128.698 88.3401 147.542 88.8222 155.617 97.4984C160.895 103.168 168.636 110.815 174.874 116.976C180.567 122.6 185.008 126.986 185.18 127.504C185.27 127.773 184.803 129.449 184.061 132.11C181.819 140.157 177.067 157.21 177.609 171.608C176.386 170.445 174.585 168.801 172.472 166.873C166.484 161.411 157.997 153.668 153.094 148.11C152.507 147.445 151.843 146.696 151.113 145.871C141.518 135.036 120.472 111.272 113.436 97.4984L120.286 89.1837Z" fill="#8C0B04"/>
</g>
<g filter="url(#filter4_d_26_15374)">
<path d="M93.7942 67.6724C93.4316 66.4481 93.0447 65.1418 92.5332 63.7456C89.6454 55.863 76.2896 38.3064 72.3189 35.7984C68.3483 33.2903 64.7386 35.7984 56.4363 42.606C53.5307 44.9886 50.1829 47.3272 47.0738 49.4992C41.2994 53.533 36.3484 56.9916 36.583 59.0877C36.944 62.3124 57.8802 85.2435 67.2654 91.3345C76.6505 97.4256 96.8648 96.709 105.528 91.3345L107.333 80.2273C96.6397 77.2789 95.479 73.3602 93.7942 67.6724Z" fill="#8C0B04"/>
<path d="M131.19 67.1931C131.592 66.3536 132.009 65.4806 132.464 64.5717C134.943 59.6092 139.667 53.3419 143.99 47.6069C147.204 43.3436 150.196 39.3744 151.879 36.4539C152.966 34.5693 158.711 37.1749 166.981 44.0241C170.361 46.8241 174.343 49.3229 177.845 51.5205C182.909 54.6985 186.969 57.2464 186.756 59.1645C186.396 62.4088 170.224 85.8404 156.194 91.6081C145.86 95.8565 128.868 97.7364 120.239 92.3291L117.003 81.1541C126.18 77.6664 128.258 73.3228 131.19 67.1931Z" fill="#8C0B04"/>
</g>
<g filter="url(#filter5_dd_26_15374)">
<path d="M115.243 71.0726C118.618 72.1403 124.538 71.0726 126.115 71.878C128.261 82.2972 125.381 100.294 120.026 109.626C117.268 110.432 106.505 110.099 104.928 109.696C94.9341 98.4555 93.4462 71.878 95.8106 71.0726C98.175 70.2672 109.98 69.4072 115.243 71.0726Z" fill="#8C0B04"/>
</g>
</g>
<defs>
<filter id="filter0_d_26_15374" x="-4" y="-2" width="328" height="308" filterUnits="userSpaceOnUse" color-interpolation-filters="sRGB">
<feFlood flood-opacity="0" result="BackgroundImageFix"/>
<feColorMatrix in="SourceAlpha" type="matrix" values="0 0 0 0 0 0 0 0 0 0 0 0 0 0 0 0 0 0 127 0" result="hardAlpha"/>
<feOffset dy="2"/>
<feGaussianBlur stdDeviation="2"/>
<feComposite in2="hardAlpha" operator="out"/>
<feColorMatrix type="matrix" values="0 0 0 0 0 0 0 0 0 0 0 0 0 0 0 0 0 0 0.25 0"/>
<feBlend mode="normal" in2="BackgroundImageFix" result="effect1_dropShadow_26_15374"/>
<feBlend mode="normal" in="SourceGraphic" in2="effect1_dropShadow_26_15374" result="shape"/>
</filter>
<filter id="filter1_d_26_15374" x="6" y="8" width="308" height="128" filterUnits="userSpaceOnUse" color-interpolation-filters="sRGB">
<feFlood flood-opacity="0" result="BackgroundImageFix"/>
<feColorMatrix in="SourceAlpha" type="matrix" values="0 0 0 0 0 0 0 0 0 0 0 0 0 0 0 0 0 0 127 0" result="hardAlpha"/>
<feOffset dy="2"/>
<feGaussianBlur stdDeviation="2"/>
<feComposite in2="hardAlpha" operator="out"/>
<feColorMatrix type="matrix" values="0 0 0 0 0 0 0 0 0 0 0 0 0 0 0 0 0 0 0.25 0"/>
<feBlend mode="normal" in2="BackgroundImageFix" result="effect1_dropShadow_26_15374"/>
<feBlend mode="normal" in="SourceGraphic" in2="effect1_dropShadow_26_15374" result="shape"/>
</filter>
<filter id="filter2_d_26_15374" x="7" y="74" width="306" height="36" filterUnits="userSpaceOnUse" color-interpolation-filters="sRGB">
<feFlood flood-opacity="0" result="BackgroundImageFix"/>
<feColorMatrix in="SourceAlpha" type="matrix" values="0 0 0 0 0 0 0 0 0 0 0 0 0 0 0 0 0 0 127 0" result="hardAlpha"/>
<feOffset dy="2"/>
<feComposite in2="hardAlpha" operator="out"/>
<feColorMatrix type="matrix" values="0 0 0 0 0 0 0 0 0 0 0 0 0 0 0 0 0 0 0.2 0"/>
<feBlend mode="normal" in2="BackgroundImageFix" result="effect1_dropShadow_26_15374"/>
<feBlend mode="normal" in="SourceGraphic" in2="effect1_dropShadow_26_15374" result="shape"/>
</filter>
<filter id="filter3_dd_26_15374" x="36.3701" y="88.4551" width="150.821" height="87.153" filterUnits="userSpaceOnUse" color-interpolation-filters="sRGB">
<feFlood flood-opacity="0" result="BackgroundImageFix"/>
<feColorMatrix in="SourceAlpha" type="matrix" values="0 0 0 0 0 0 0 0 0 0 0 0 0 0 0 0 0 0 127 0" result="hardAlpha"/>
<feOffset dx="2" dy="4"/>
<feComposite in2="hardAlpha" operator="out"/>
<feColorMatrix type="matrix" values="0 0 0 0 0 0 0 0 0 0 0 0 0 0 0 0 0 0 0.2 0"/>
<feBlend mode="multiply" in2="BackgroundImageFix" result="effect1_dropShadow_26_15374"/>
<feColorMatrix in="SourceAlpha" type="matrix" values="0 0 0 0 0 0 0 0 0 0 0 0 0 0 0 0 0 0 127 0" result="hardAlpha"/>
<feOffset dx="-1"/>
<feComposite in2="hardAlpha" operator="out"/>
<feColorMatrix type="matrix" values="0 0 0 0 0 0 0 0 0 0 0 0 0 0 0 0 0 0 0.2 0"/>
<feBlend mode="normal" in2="effect1_dropShadow_26_15374" result="effect2_dropShadow_26_15374"/>
<feBlend mode="normal" in="SourceGraphic" in2="effect2_dropShadow_26_15374" result="shape"/>
</filter>
<filter id="filter4_d_26_15374" x="36.575" y="34.8463" width="150.189" height="64.8074" filterUnits="userSpaceOnUse" color-interpolation-filters="sRGB">
<feFlood flood-opacity="0" result="BackgroundImageFix"/>
<feColorMatrix in="SourceAlpha" type="matrix" values="0 0 0 0 0 0 0 0 0 0 0 0 0 0 0 0 0 0 127 0" result="hardAlpha"/>
<feOffset dy="4"/>
<feComposite in2="hardAlpha" operator="out"/>
<feColorMatrix type="matrix" values="0 0 0 0 0 0 0 0 0 0 0 0 0 0 0 0 0 0 0.2 0"/>
<feBlend mode="multiply" in2="BackgroundImageFix" result="effect1_dropShadow_26_15374"/>
<feBlend mode="normal" in="SourceGraphic" in2="effect1_dropShadow_26_15374" result="shape"/>
</filter>
<filter id="filter5_dd_26_15374" x="93.8291" y="70.1195" width="35" height="44" filterUnits="userSpaceOnUse" color-interpolation-filters="sRGB">
<feFlood flood-opacity="0" result="BackgroundImageFix"/>
<feColorMatrix in="SourceAlpha" type="matrix" values="0 0 0 0 0 0 0 0 0 0 0 0 0 0 0 0 0 0 127 0" result="hardAlpha"/>
<feOffset dx="2" dy="4"/>
<feComposite in2="hardAlpha" operator="out"/>
<feColorMatrix type="matrix" values="0 0 0 0 0 0 0 0 0 0 0 0 0 0 0 0 0 0 0.2 0"/>
<feBlend mode="normal" in2="BackgroundImageFix" result="effect1_dropShadow_26_15374"/>
<feColorMatrix in="SourceAlpha" type="matrix" values="0 0 0 0 0 0 0 0 0 0 0 0 0 0 0 0 0 0 127 0" result="hardAlpha"/>
<feOffset dx="-1"/>
<feComposite in2="hardAlpha" operator="out"/>
<feColorMatrix type="matrix" values="0 0 0 0 0 0 0 0 0 0 0 0 0 0 0 0 0 0 0.2 0"/>
<feBlend mode="normal" in2="effect1_dropShadow_26_15374" result="effect2_dropShadow_26_15374"/>
<feBlend mode="normal" in="SourceGraphic" in2="effect2_dropShadow_26_15374" result="shape"/>
</filter>
<clipPath id="clip0_26_15374">
<rect x="20" y="24" width="280" height="266" rx="12" fill="white"/>
</clipPath>
</defs>
</svg>
